<mxfile host="Electron" modified="2023-11-06T16:39:00.073Z" agent="Mozilla/5.0 (Macintosh; Intel Mac OS X 10_15_7) AppleWebKit/537.36 (KHTML, like Gecko) draw.io/22.0.2 Chrome/114.0.5735.289 Electron/25.8.4 Safari/537.36" etag="gjeFlwuAmCzTdwpKH6NE" version="22.0.2" type="device" pages="4">
  <diagram name="авторизация" id="_HDaUYhhTkTmqW-n_YzJ">
    <mxGraphModel dx="1466" dy="1061" grid="1" gridSize="10" guides="1" tooltips="1" connect="1" arrows="1" fold="1" page="1" pageScale="1" pageWidth="827" pageHeight="1169" math="0" shadow="0">
      <root>
        <mxCell id="0" />
        <mxCell id="1" parent="0" />
        <mxCell id="w2oMyZCjz0sZhtdzbkaw-1" value="" style="shape=umlActor;verticalLabelPosition=bottom;verticalAlign=top;html=1;" parent="1" vertex="1">
          <mxGeometry x="80" y="55" width="30" height="60" as="geometry" />
        </mxCell>
        <mxCell id="w2oMyZCjz0sZhtdzbkaw-4" value="" style="shape=umlBoundary;whiteSpace=wrap;html=1;" parent="1" vertex="1">
          <mxGeometry x="220" y="50" width="80" height="70" as="geometry" />
        </mxCell>
        <mxCell id="w2oMyZCjz0sZhtdzbkaw-7" value="" style="ellipse;shape=umlControl;whiteSpace=wrap;html=1;" parent="1" vertex="1">
          <mxGeometry x="379" y="40" width="70" height="80" as="geometry" />
        </mxCell>
        <mxCell id="w2oMyZCjz0sZhtdzbkaw-8" value="" style="ellipse;shape=umlEntity;whiteSpace=wrap;html=1;" parent="1" vertex="1">
          <mxGeometry x="530" y="50" width="70" height="70" as="geometry" />
        </mxCell>
        <mxCell id="w2oMyZCjz0sZhtdzbkaw-9" value=": Клиент" style="rounded=1;whiteSpace=wrap;html=1;" parent="1" vertex="1">
          <mxGeometry x="50" y="130" width="90" height="40" as="geometry" />
        </mxCell>
        <mxCell id="w2oMyZCjz0sZhtdzbkaw-10" value=": Интерфейс клиента" style="rounded=1;whiteSpace=wrap;html=1;" parent="1" vertex="1">
          <mxGeometry x="220" y="130" width="90" height="40" as="geometry" />
        </mxCell>
        <mxCell id="w2oMyZCjz0sZhtdzbkaw-11" value=": Система" style="rounded=1;whiteSpace=wrap;html=1;" parent="1" vertex="1">
          <mxGeometry x="369" y="130" width="90" height="40" as="geometry" />
        </mxCell>
        <mxCell id="w2oMyZCjz0sZhtdzbkaw-12" value=": Данные" style="rounded=1;whiteSpace=wrap;html=1;" parent="1" vertex="1">
          <mxGeometry x="520" y="130" width="90" height="40" as="geometry" />
        </mxCell>
        <mxCell id="w2oMyZCjz0sZhtdzbkaw-13" value="" style="endArrow=none;dashed=1;html=1;dashPattern=1 3;strokeWidth=2;rounded=0;entryX=0.5;entryY=1;entryDx=0;entryDy=0;" parent="1" source="w2oMyZCjz0sZhtdzbkaw-61" target="w2oMyZCjz0sZhtdzbkaw-9" edge="1">
          <mxGeometry width="50" height="50" relative="1" as="geometry">
            <mxPoint x="95" y="780" as="sourcePoint" />
            <mxPoint x="160" y="340" as="targetPoint" />
          </mxGeometry>
        </mxCell>
        <mxCell id="w2oMyZCjz0sZhtdzbkaw-14" value="" style="endArrow=none;dashed=1;html=1;dashPattern=1 3;strokeWidth=2;rounded=0;entryX=0.5;entryY=1;entryDx=0;entryDy=0;" parent="1" source="w2oMyZCjz0sZhtdzbkaw-21" edge="1">
          <mxGeometry width="50" height="50" relative="1" as="geometry">
            <mxPoint x="260" y="760" as="sourcePoint" />
            <mxPoint x="262.5" y="170" as="targetPoint" />
          </mxGeometry>
        </mxCell>
        <mxCell id="w2oMyZCjz0sZhtdzbkaw-15" value="" style="endArrow=none;dashed=1;html=1;dashPattern=1 3;strokeWidth=2;rounded=0;entryX=0.5;entryY=1;entryDx=0;entryDy=0;" parent="1" source="w2oMyZCjz0sZhtdzbkaw-37" edge="1">
          <mxGeometry width="50" height="50" relative="1" as="geometry">
            <mxPoint x="415" y="770" as="sourcePoint" />
            <mxPoint x="415" y="170" as="targetPoint" />
          </mxGeometry>
        </mxCell>
        <mxCell id="w2oMyZCjz0sZhtdzbkaw-16" value="" style="endArrow=none;dashed=1;html=1;dashPattern=1 3;strokeWidth=2;rounded=0;entryX=0.5;entryY=1;entryDx=0;entryDy=0;" parent="1" source="w2oMyZCjz0sZhtdzbkaw-33" edge="1">
          <mxGeometry width="50" height="50" relative="1" as="geometry">
            <mxPoint x="567" y="770" as="sourcePoint" />
            <mxPoint x="567.5" y="170" as="targetPoint" />
          </mxGeometry>
        </mxCell>
        <mxCell id="w2oMyZCjz0sZhtdzbkaw-18" value="" style="html=1;points=[[0,0,0,0,5],[0,1,0,0,-5],[1,0,0,0,5],[1,1,0,0,-5]];perimeter=orthogonalPerimeter;outlineConnect=0;targetShapes=umlLifeline;portConstraint=eastwest;newEdgeStyle={&quot;curved&quot;:0,&quot;rounded&quot;:0};" parent="1" vertex="1">
          <mxGeometry x="90" y="240" width="10" height="40" as="geometry" />
        </mxCell>
        <mxCell id="w2oMyZCjz0sZhtdzbkaw-19" value="Старт" style="html=1;verticalAlign=bottom;endArrow=block;curved=0;rounded=0;" parent="1" target="w2oMyZCjz0sZhtdzbkaw-21" edge="1">
          <mxGeometry width="80" relative="1" as="geometry">
            <mxPoint x="100" y="260" as="sourcePoint" />
            <mxPoint x="250" y="260" as="targetPoint" />
          </mxGeometry>
        </mxCell>
        <mxCell id="w2oMyZCjz0sZhtdzbkaw-22" value="" style="endArrow=none;dashed=1;html=1;dashPattern=1 3;strokeWidth=2;rounded=0;entryX=0.5;entryY=1;entryDx=0;entryDy=0;" parent="1" source="w2oMyZCjz0sZhtdzbkaw-57" target="w2oMyZCjz0sZhtdzbkaw-21" edge="1">
          <mxGeometry width="50" height="50" relative="1" as="geometry">
            <mxPoint x="260" y="760" as="sourcePoint" />
            <mxPoint x="262.5" y="170" as="targetPoint" />
          </mxGeometry>
        </mxCell>
        <mxCell id="w2oMyZCjz0sZhtdzbkaw-21" value="" style="html=1;points=[[0,0,0,0,5],[0,1,0,0,-5],[1,0,0,0,5],[1,1,0,0,-5]];perimeter=orthogonalPerimeter;outlineConnect=0;targetShapes=umlLifeline;portConstraint=eastwest;newEdgeStyle={&quot;curved&quot;:0,&quot;rounded&quot;:0};" parent="1" vertex="1">
          <mxGeometry x="255" y="240" width="10" height="40" as="geometry" />
        </mxCell>
        <mxCell id="w2oMyZCjz0sZhtdzbkaw-34" value="Проверяем &lt;br&gt;пользователя в бд" style="html=1;verticalAlign=bottom;endArrow=block;curved=0;rounded=0;entryX=0;entryY=0;entryDx=0;entryDy=5;exitX=1;exitY=0;exitDx=0;exitDy=5;exitPerimeter=0;" parent="1" source="w2oMyZCjz0sZhtdzbkaw-37" target="w2oMyZCjz0sZhtdzbkaw-33" edge="1">
          <mxGeometry x="0.0013" relative="1" as="geometry">
            <mxPoint x="490" y="245" as="sourcePoint" />
            <mxPoint as="offset" />
          </mxGeometry>
        </mxCell>
        <mxCell id="w2oMyZCjz0sZhtdzbkaw-35" value="Данные о пользователе" style="html=1;verticalAlign=bottom;endArrow=open;dashed=1;endSize=8;curved=0;rounded=0;exitX=0;exitY=1;exitDx=0;exitDy=-5;" parent="1" source="w2oMyZCjz0sZhtdzbkaw-33" target="w2oMyZCjz0sZhtdzbkaw-37" edge="1">
          <mxGeometry x="-0.0014" relative="1" as="geometry">
            <mxPoint x="430" y="320" as="targetPoint" />
            <mxPoint as="offset" />
          </mxGeometry>
        </mxCell>
        <mxCell id="w2oMyZCjz0sZhtdzbkaw-39" value="" style="endArrow=none;dashed=1;html=1;dashPattern=1 3;strokeWidth=2;rounded=0;entryX=0.5;entryY=1;entryDx=0;entryDy=0;" parent="1" target="w2oMyZCjz0sZhtdzbkaw-37" edge="1">
          <mxGeometry width="50" height="50" relative="1" as="geometry">
            <mxPoint x="414" y="680" as="sourcePoint" />
            <mxPoint x="415" y="170" as="targetPoint" />
          </mxGeometry>
        </mxCell>
        <mxCell id="w2oMyZCjz0sZhtdzbkaw-37" value="" style="html=1;points=[[0,0,0,0,5],[0,1,0,0,-5],[1,0,0,0,5],[1,1,0,0,-5]];perimeter=orthogonalPerimeter;outlineConnect=0;targetShapes=umlLifeline;portConstraint=eastwest;newEdgeStyle={&quot;curved&quot;:0,&quot;rounded&quot;:0};" parent="1" vertex="1">
          <mxGeometry x="409" y="240" width="10" height="90" as="geometry" />
        </mxCell>
        <mxCell id="w2oMyZCjz0sZhtdzbkaw-40" value="" style="endArrow=none;dashed=1;html=1;dashPattern=1 3;strokeWidth=2;rounded=0;entryX=0.5;entryY=1;entryDx=0;entryDy=0;" parent="1" source="w2oMyZCjz0sZhtdzbkaw-45" target="w2oMyZCjz0sZhtdzbkaw-33" edge="1">
          <mxGeometry width="50" height="50" relative="1" as="geometry">
            <mxPoint x="567" y="770" as="sourcePoint" />
            <mxPoint x="567.5" y="170" as="targetPoint" />
          </mxGeometry>
        </mxCell>
        <mxCell id="w2oMyZCjz0sZhtdzbkaw-33" value="" style="html=1;points=[[0,0,0,0,5],[0,1,0,0,-5],[1,0,0,0,5],[1,1,0,0,-5]];perimeter=orthogonalPerimeter;outlineConnect=0;targetShapes=umlLifeline;portConstraint=eastwest;newEdgeStyle={&quot;curved&quot;:0,&quot;rounded&quot;:0};" parent="1" vertex="1">
          <mxGeometry x="560" y="240" width="10" height="80" as="geometry" />
        </mxCell>
        <mxCell id="w2oMyZCjz0sZhtdzbkaw-41" value="Подключиться&lt;br&gt;&amp;nbsp;к системе" style="html=1;verticalAlign=bottom;endArrow=block;curved=0;rounded=0;" parent="1" source="w2oMyZCjz0sZhtdzbkaw-21" target="w2oMyZCjz0sZhtdzbkaw-37" edge="1">
          <mxGeometry width="80" relative="1" as="geometry">
            <mxPoint x="270" y="260" as="sourcePoint" />
            <mxPoint x="350" y="260" as="targetPoint" />
          </mxGeometry>
        </mxCell>
        <mxCell id="w2oMyZCjz0sZhtdzbkaw-46" value="сохранить&lt;br&gt;пользователя" style="html=1;align=left;spacingLeft=2;endArrow=block;rounded=0;edgeStyle=orthogonalEdgeStyle;curved=0;rounded=0;" parent="1" target="w2oMyZCjz0sZhtdzbkaw-45" edge="1">
          <mxGeometry relative="1" as="geometry">
            <mxPoint x="570" y="310" as="sourcePoint" />
            <Array as="points">
              <mxPoint x="595" y="310" />
              <mxPoint x="595" y="370" />
            </Array>
            <mxPoint as="offset" />
          </mxGeometry>
        </mxCell>
        <mxCell id="w2oMyZCjz0sZhtdzbkaw-47" value="" style="endArrow=none;dashed=1;html=1;dashPattern=1 3;strokeWidth=2;rounded=0;entryX=0.5;entryY=1;entryDx=0;entryDy=0;" parent="1" target="w2oMyZCjz0sZhtdzbkaw-45" edge="1">
          <mxGeometry width="50" height="50" relative="1" as="geometry">
            <mxPoint x="565" y="1150" as="sourcePoint" />
            <mxPoint x="565" y="320" as="targetPoint" />
          </mxGeometry>
        </mxCell>
        <mxCell id="w2oMyZCjz0sZhtdzbkaw-45" value="" style="html=1;points=[[0,0,0,0,5],[0,1,0,0,-5],[1,0,0,0,5],[1,1,0,0,-5]];perimeter=orthogonalPerimeter;outlineConnect=0;targetShapes=umlLifeline;portConstraint=eastwest;newEdgeStyle={&quot;curved&quot;:0,&quot;rounded&quot;:0};" parent="1" vertex="1">
          <mxGeometry x="560" y="330" width="10" height="40" as="geometry" />
        </mxCell>
        <mxCell id="w2oMyZCjz0sZhtdzbkaw-58" value="" style="endArrow=none;dashed=1;html=1;dashPattern=1 3;strokeWidth=2;rounded=0;entryX=0.5;entryY=1;entryDx=0;entryDy=0;" parent="1" source="w2oMyZCjz0sZhtdzbkaw-83" target="w2oMyZCjz0sZhtdzbkaw-57" edge="1">
          <mxGeometry width="50" height="50" relative="1" as="geometry">
            <mxPoint x="260" y="760" as="sourcePoint" />
            <mxPoint x="260" y="280" as="targetPoint" />
          </mxGeometry>
        </mxCell>
        <mxCell id="w2oMyZCjz0sZhtdzbkaw-57" value="" style="html=1;points=[[0,0,0,0,5],[0,1,0,0,-5],[1,0,0,0,5],[1,1,0,0,-5]];perimeter=orthogonalPerimeter;outlineConnect=0;targetShapes=umlLifeline;portConstraint=eastwest;newEdgeStyle={&quot;curved&quot;:0,&quot;rounded&quot;:0};" parent="1" vertex="1">
          <mxGeometry x="255" y="300" width="10" height="40" as="geometry" />
        </mxCell>
        <mxCell id="w2oMyZCjz0sZhtdzbkaw-59" value="" style="endArrow=none;dashed=1;html=1;dashPattern=1 3;strokeWidth=2;rounded=0;entryX=0.5;entryY=1;entryDx=0;entryDy=0;" parent="1" source="w2oMyZCjz0sZhtdzbkaw-61" edge="1">
          <mxGeometry width="50" height="50" relative="1" as="geometry">
            <mxPoint x="95" y="790" as="sourcePoint" />
            <mxPoint x="95" y="310" as="targetPoint" />
          </mxGeometry>
        </mxCell>
        <mxCell id="w2oMyZCjz0sZhtdzbkaw-60" value="Показать&lt;br&gt;главное меню" style="html=1;verticalAlign=bottom;endArrow=block;curved=0;rounded=0;exitX=-0.42;exitY=-0.01;exitDx=0;exitDy=0;exitPerimeter=0;" parent="1" target="w2oMyZCjz0sZhtdzbkaw-61" edge="1">
          <mxGeometry x="-0.0029" width="80" relative="1" as="geometry">
            <mxPoint x="254.99999999999994" y="320" as="sourcePoint" />
            <mxPoint x="104.2" y="320.4" as="targetPoint" />
            <mxPoint as="offset" />
          </mxGeometry>
        </mxCell>
        <mxCell id="w2oMyZCjz0sZhtdzbkaw-72" value="" style="endArrow=none;dashed=1;html=1;dashPattern=1 3;strokeWidth=2;rounded=0;entryX=0.5;entryY=1;entryDx=0;entryDy=0;" parent="1" source="w2oMyZCjz0sZhtdzbkaw-78" target="w2oMyZCjz0sZhtdzbkaw-61" edge="1">
          <mxGeometry width="50" height="50" relative="1" as="geometry">
            <mxPoint x="95" y="780" as="sourcePoint" />
            <mxPoint x="95" y="170" as="targetPoint" />
          </mxGeometry>
        </mxCell>
        <mxCell id="w2oMyZCjz0sZhtdzbkaw-61" value="" style="html=1;points=[[0,0,0,0,5],[0,1,0,0,-5],[1,0,0,0,5],[1,1,0,0,-5]];perimeter=orthogonalPerimeter;outlineConnect=0;targetShapes=umlLifeline;portConstraint=eastwest;newEdgeStyle={&quot;curved&quot;:0,&quot;rounded&quot;:0};" parent="1" vertex="1">
          <mxGeometry x="90" y="300" width="10" height="40" as="geometry" />
        </mxCell>
        <mxCell id="w2oMyZCjz0sZhtdzbkaw-81" value="" style="endArrow=none;dashed=1;html=1;dashPattern=1 3;strokeWidth=2;rounded=0;entryX=0.5;entryY=1;entryDx=0;entryDy=0;" parent="1" source="w2oMyZCjz0sZhtdzbkaw-98" target="w2oMyZCjz0sZhtdzbkaw-78" edge="1">
          <mxGeometry width="50" height="50" relative="1" as="geometry">
            <mxPoint x="95" y="780" as="sourcePoint" />
            <mxPoint x="95" y="340" as="targetPoint" />
          </mxGeometry>
        </mxCell>
        <mxCell id="w2oMyZCjz0sZhtdzbkaw-78" value="" style="html=1;points=[[0,0,0,0,5],[0,1,0,0,-5],[1,0,0,0,5],[1,1,0,0,-5]];perimeter=orthogonalPerimeter;outlineConnect=0;targetShapes=umlLifeline;portConstraint=eastwest;newEdgeStyle={&quot;curved&quot;:0,&quot;rounded&quot;:0};" parent="1" vertex="1">
          <mxGeometry x="90" y="380" width="10" height="100" as="geometry" />
        </mxCell>
        <mxCell id="w2oMyZCjz0sZhtdzbkaw-82" value="Информация об&lt;br&gt;&amp;nbsp;аккаунте" style="html=1;verticalAlign=bottom;endArrow=block;curved=0;rounded=0;" parent="1" target="w2oMyZCjz0sZhtdzbkaw-83" edge="1">
          <mxGeometry width="80" relative="1" as="geometry">
            <mxPoint x="100" y="400" as="sourcePoint" />
            <mxPoint x="180" y="400" as="targetPoint" />
          </mxGeometry>
        </mxCell>
        <mxCell id="w2oMyZCjz0sZhtdzbkaw-84" value="" style="endArrow=none;dashed=1;html=1;dashPattern=1 3;strokeWidth=2;rounded=0;entryX=0.5;entryY=1;entryDx=0;entryDy=0;" parent="1" source="e6jYAYjG6SPio9JDinUB-2" target="w2oMyZCjz0sZhtdzbkaw-83" edge="1">
          <mxGeometry width="50" height="50" relative="1" as="geometry">
            <mxPoint x="260" y="590" as="sourcePoint" />
            <mxPoint x="260" y="340" as="targetPoint" />
          </mxGeometry>
        </mxCell>
        <mxCell id="w2oMyZCjz0sZhtdzbkaw-83" value="" style="html=1;points=[[0,0,0,0,5],[0,1,0,0,-5],[1,0,0,0,5],[1,1,0,0,-5]];perimeter=orthogonalPerimeter;outlineConnect=0;targetShapes=umlLifeline;portConstraint=eastwest;newEdgeStyle={&quot;curved&quot;:0,&quot;rounded&quot;:0};" parent="1" vertex="1">
          <mxGeometry x="255" y="380" width="10" height="100" as="geometry" />
        </mxCell>
        <mxCell id="w2oMyZCjz0sZhtdzbkaw-85" value="" style="html=1;points=[[0,0,0,0,5],[0,1,0,0,-5],[1,0,0,0,5],[1,1,0,0,-5]];perimeter=orthogonalPerimeter;outlineConnect=0;targetShapes=umlLifeline;portConstraint=eastwest;newEdgeStyle={&quot;curved&quot;:0,&quot;rounded&quot;:0};" parent="1" vertex="1">
          <mxGeometry x="409" y="390" width="10" height="80" as="geometry" />
        </mxCell>
        <mxCell id="w2oMyZCjz0sZhtdzbkaw-86" value="Создать сообщение&amp;nbsp;&lt;br&gt;с информацией&lt;br&gt;об аккаунте" style="html=1;verticalAlign=bottom;endArrow=block;curved=0;rounded=0;entryX=0;entryY=0;entryDx=0;entryDy=5;" parent="1" source="w2oMyZCjz0sZhtdzbkaw-83" target="w2oMyZCjz0sZhtdzbkaw-85" edge="1">
          <mxGeometry relative="1" as="geometry">
            <mxPoint x="339" y="395" as="sourcePoint" />
          </mxGeometry>
        </mxCell>
        <mxCell id="w2oMyZCjz0sZhtdzbkaw-87" value="сообщение об аккаунте" style="html=1;verticalAlign=bottom;endArrow=open;dashed=1;endSize=8;curved=0;rounded=0;exitX=0;exitY=1;exitDx=0;exitDy=-5;" parent="1" source="w2oMyZCjz0sZhtdzbkaw-85" target="w2oMyZCjz0sZhtdzbkaw-83" edge="1">
          <mxGeometry relative="1" as="geometry">
            <mxPoint x="270" y="465" as="targetPoint" />
          </mxGeometry>
        </mxCell>
        <mxCell id="w2oMyZCjz0sZhtdzbkaw-88" value="" style="html=1;points=[[0,0,0,0,5],[0,1,0,0,-5],[1,0,0,0,5],[1,1,0,0,-5]];perimeter=orthogonalPerimeter;outlineConnect=0;targetShapes=umlLifeline;portConstraint=eastwest;newEdgeStyle={&quot;curved&quot;:0,&quot;rounded&quot;:0};" parent="1" vertex="1">
          <mxGeometry x="560" y="400" width="10" height="70" as="geometry" />
        </mxCell>
        <mxCell id="w2oMyZCjz0sZhtdzbkaw-89" value="Получить данные&lt;br&gt;о пользователе" style="html=1;verticalAlign=bottom;endArrow=block;curved=0;rounded=0;entryX=0;entryY=0;entryDx=0;entryDy=5;" parent="1" target="w2oMyZCjz0sZhtdzbkaw-88" edge="1">
          <mxGeometry relative="1" as="geometry">
            <mxPoint x="420" y="405" as="sourcePoint" />
          </mxGeometry>
        </mxCell>
        <mxCell id="w2oMyZCjz0sZhtdzbkaw-90" value="Данные пользователя" style="html=1;verticalAlign=bottom;endArrow=open;dashed=1;endSize=8;curved=0;rounded=0;exitX=0;exitY=1;exitDx=0;exitDy=-5;" parent="1" source="w2oMyZCjz0sZhtdzbkaw-88" target="w2oMyZCjz0sZhtdzbkaw-85" edge="1">
          <mxGeometry relative="1" as="geometry">
            <mxPoint x="490" y="475" as="targetPoint" />
          </mxGeometry>
        </mxCell>
        <mxCell id="w2oMyZCjz0sZhtdzbkaw-91" value="сообщение об аккаунте" style="html=1;verticalAlign=bottom;endArrow=open;dashed=1;endSize=8;curved=0;rounded=0;" parent="1" target="w2oMyZCjz0sZhtdzbkaw-78" edge="1">
          <mxGeometry x="0.0027" relative="1" as="geometry">
            <mxPoint x="250" y="470" as="sourcePoint" />
            <mxPoint x="110" y="470" as="targetPoint" />
            <mxPoint as="offset" />
          </mxGeometry>
        </mxCell>
        <mxCell id="w2oMyZCjz0sZhtdzbkaw-99" value="" style="endArrow=none;dashed=1;html=1;dashPattern=1 3;strokeWidth=2;rounded=0;entryX=0.5;entryY=1;entryDx=0;entryDy=0;" parent="1" source="w2oMyZCjz0sZhtdzbkaw-134" target="w2oMyZCjz0sZhtdzbkaw-98" edge="1">
          <mxGeometry width="50" height="50" relative="1" as="geometry">
            <mxPoint x="95" y="870" as="sourcePoint" />
            <mxPoint x="95" y="570" as="targetPoint" />
          </mxGeometry>
        </mxCell>
        <mxCell id="w2oMyZCjz0sZhtdzbkaw-98" value="" style="html=1;points=[[0,0,0,0,5],[0,1,0,0,-5],[1,0,0,0,5],[1,1,0,0,-5]];perimeter=orthogonalPerimeter;outlineConnect=0;targetShapes=umlLifeline;portConstraint=eastwest;newEdgeStyle={&quot;curved&quot;:0,&quot;rounded&quot;:0};" parent="1" vertex="1">
          <mxGeometry x="90" y="600" width="10" height="40" as="geometry" />
        </mxCell>
        <mxCell id="w2oMyZCjz0sZhtdzbkaw-100" value="Меню задачи" style="html=1;verticalAlign=bottom;endArrow=block;curved=0;rounded=0;" parent="1" edge="1">
          <mxGeometry width="80" relative="1" as="geometry">
            <mxPoint x="100" y="620" as="sourcePoint" />
            <mxPoint x="255" y="620" as="targetPoint" />
          </mxGeometry>
        </mxCell>
        <mxCell id="w2oMyZCjz0sZhtdzbkaw-101" value="" style="endArrow=none;dashed=1;html=1;dashPattern=1 3;strokeWidth=2;rounded=0;" parent="1" source="PDmkwRI-ZpfKwhr9b_i3-9" target="w2oMyZCjz0sZhtdzbkaw-170" edge="1">
          <mxGeometry width="50" height="50" relative="1" as="geometry">
            <mxPoint x="260" y="1160" as="sourcePoint" />
            <mxPoint x="260" y="800" as="targetPoint" />
          </mxGeometry>
        </mxCell>
        <mxCell id="w2oMyZCjz0sZhtdzbkaw-103" value="" style="html=1;points=[[0,0,0,0,5],[0,1,0,0,-5],[1,0,0,0,5],[1,1,0,0,-5]];perimeter=orthogonalPerimeter;outlineConnect=0;targetShapes=umlLifeline;portConstraint=eastwest;newEdgeStyle={&quot;curved&quot;:0,&quot;rounded&quot;:0};" parent="1" vertex="1">
          <mxGeometry x="409" y="610" width="10" height="190" as="geometry" />
        </mxCell>
        <mxCell id="w2oMyZCjz0sZhtdzbkaw-104" value="Проверка срока&amp;nbsp;&lt;br&gt;окончания подписки" style="html=1;verticalAlign=bottom;endArrow=block;curved=0;rounded=0;exitX=1;exitY=0;exitDx=0;exitDy=5;exitPerimeter=0;" parent="1" target="w2oMyZCjz0sZhtdzbkaw-103" edge="1">
          <mxGeometry x="-0.0025" width="80" relative="1" as="geometry">
            <mxPoint x="265" y="615" as="sourcePoint" />
            <mxPoint x="350" y="620" as="targetPoint" />
            <mxPoint as="offset" />
          </mxGeometry>
        </mxCell>
        <mxCell id="w2oMyZCjz0sZhtdzbkaw-112" value="Показать&amp;nbsp;&lt;br&gt;главное меню" style="html=1;verticalAlign=bottom;endArrow=open;dashed=1;endSize=8;curved=0;rounded=0;" parent="1" target="w2oMyZCjz0sZhtdzbkaw-57" edge="1">
          <mxGeometry relative="1" as="geometry">
            <mxPoint x="410" y="320" as="sourcePoint" />
            <mxPoint x="330" y="320" as="targetPoint" />
          </mxGeometry>
        </mxCell>
        <mxCell id="w2oMyZCjz0sZhtdzbkaw-124" value="" style="html=1;points=[[0,0,0,0,5],[0,1,0,0,-5],[1,0,0,0,5],[1,1,0,0,-5]];perimeter=orthogonalPerimeter;outlineConnect=0;targetShapes=umlLifeline;portConstraint=eastwest;newEdgeStyle={&quot;curved&quot;:0,&quot;rounded&quot;:0};" parent="1" vertex="1">
          <mxGeometry x="560" y="610" width="10" height="80" as="geometry" />
        </mxCell>
        <mxCell id="w2oMyZCjz0sZhtdzbkaw-125" value="Получаем дату&lt;br&gt;&amp;nbsp;конца подписки" style="html=1;verticalAlign=bottom;endArrow=block;curved=0;rounded=0;entryX=0;entryY=0;entryDx=0;entryDy=5;exitX=1;exitY=0;exitDx=0;exitDy=5;exitPerimeter=0;" parent="1" source="w2oMyZCjz0sZhtdzbkaw-103" target="w2oMyZCjz0sZhtdzbkaw-124" edge="1">
          <mxGeometry x="0.0058" relative="1" as="geometry">
            <mxPoint x="490" y="615" as="sourcePoint" />
            <mxPoint as="offset" />
          </mxGeometry>
        </mxCell>
        <mxCell id="w2oMyZCjz0sZhtdzbkaw-126" value="Данные&amp;nbsp;конца подписки" style="html=1;verticalAlign=bottom;endArrow=open;dashed=1;endSize=8;curved=0;rounded=0;exitX=0;exitY=1;exitDx=0;exitDy=-5;" parent="1" source="w2oMyZCjz0sZhtdzbkaw-124" target="w2oMyZCjz0sZhtdzbkaw-103" edge="1">
          <mxGeometry x="-0.0071" relative="1" as="geometry">
            <mxPoint x="490" y="685" as="targetPoint" />
            <mxPoint as="offset" />
          </mxGeometry>
        </mxCell>
        <mxCell id="w2oMyZCjz0sZhtdzbkaw-127" value="[endSubs&amp;nbsp; &amp;lt;&amp;nbsp; date.now]" style="text;html=1;align=center;verticalAlign=middle;resizable=0;points=[];autosize=1;strokeColor=none;fillColor=none;fontSize=8;" parent="1" vertex="1">
          <mxGeometry x="70" y="670" width="110" height="20" as="geometry" />
        </mxCell>
        <mxCell id="w2oMyZCjz0sZhtdzbkaw-129" value="Сообщение о&amp;nbsp;&lt;br&gt;неуп. подписке" style="html=1;verticalAlign=bottom;endArrow=open;dashed=1;endSize=8;curved=0;rounded=0;" parent="1" target="w2oMyZCjz0sZhtdzbkaw-169" edge="1">
          <mxGeometry relative="1" as="geometry">
            <mxPoint x="409" y="715" as="sourcePoint" />
            <mxPoint x="265" y="715" as="targetPoint" />
          </mxGeometry>
        </mxCell>
        <mxCell id="w2oMyZCjz0sZhtdzbkaw-133" value="" style="endArrow=none;dashed=1;html=1;dashPattern=1 3;strokeWidth=2;rounded=0;entryX=0.675;entryY=0;entryDx=0;entryDy=0;entryPerimeter=0;" parent="1" target="PDmkwRI-ZpfKwhr9b_i3-2" edge="1">
          <mxGeometry width="50" height="50" relative="1" as="geometry">
            <mxPoint x="415" y="1150" as="sourcePoint" />
            <mxPoint x="415" y="780" as="targetPoint" />
          </mxGeometry>
        </mxCell>
        <mxCell id="w2oMyZCjz0sZhtdzbkaw-135" value="" style="endArrow=none;dashed=1;html=1;dashPattern=1 3;strokeWidth=2;rounded=0;entryX=0.5;entryY=1;entryDx=0;entryDy=0;" parent="1" source="w2oMyZCjz0sZhtdzbkaw-128" target="w2oMyZCjz0sZhtdzbkaw-134" edge="1">
          <mxGeometry width="50" height="50" relative="1" as="geometry">
            <mxPoint x="95" y="870" as="sourcePoint" />
            <mxPoint x="95" y="640" as="targetPoint" />
          </mxGeometry>
        </mxCell>
        <mxCell id="w2oMyZCjz0sZhtdzbkaw-134" value="" style="html=1;points=[[0,0,0,0,5],[0,1,0,0,-5],[1,0,0,0,5],[1,1,0,0,-5]];perimeter=orthogonalPerimeter;outlineConnect=0;targetShapes=umlLifeline;portConstraint=eastwest;newEdgeStyle={&quot;curved&quot;:0,&quot;rounded&quot;:0};" parent="1" vertex="1">
          <mxGeometry x="90" y="690" width="10" height="40" as="geometry" />
        </mxCell>
        <mxCell id="w2oMyZCjz0sZhtdzbkaw-136" value="Сообщение" style="html=1;verticalAlign=bottom;endArrow=open;dashed=1;endSize=8;curved=0;rounded=0;" parent="1" target="w2oMyZCjz0sZhtdzbkaw-134" edge="1">
          <mxGeometry x="0.0013" relative="1" as="geometry">
            <mxPoint x="255" y="719.55" as="sourcePoint" />
            <mxPoint x="111" y="719.55" as="targetPoint" />
            <mxPoint as="offset" />
          </mxGeometry>
        </mxCell>
        <mxCell id="w2oMyZCjz0sZhtdzbkaw-137" value="Меню задачи" style="html=1;verticalAlign=bottom;endArrow=open;dashed=1;endSize=8;curved=0;rounded=0;" parent="1" target="w2oMyZCjz0sZhtdzbkaw-170" edge="1">
          <mxGeometry x="-0.0025" relative="1" as="geometry">
            <mxPoint x="409" y="779.55" as="sourcePoint" />
            <mxPoint x="265" y="779.55" as="targetPoint" />
            <mxPoint as="offset" />
          </mxGeometry>
        </mxCell>
        <mxCell id="w2oMyZCjz0sZhtdzbkaw-139" value="" style="endArrow=none;dashed=1;html=1;dashPattern=1 3;strokeWidth=2;rounded=0;entryX=0.5;entryY=1;entryDx=0;entryDy=0;" parent="1" source="PDmkwRI-ZpfKwhr9b_i3-7" target="w2oMyZCjz0sZhtdzbkaw-138" edge="1">
          <mxGeometry width="50" height="50" relative="1" as="geometry">
            <mxPoint x="95" y="1160" as="sourcePoint" />
            <mxPoint x="95" y="780" as="targetPoint" />
          </mxGeometry>
        </mxCell>
        <mxCell id="w2oMyZCjz0sZhtdzbkaw-138" value="" style="html=1;points=[[0,0,0,0,5],[0,1,0,0,-5],[1,0,0,0,5],[1,1,0,0,-5]];perimeter=orthogonalPerimeter;outlineConnect=0;targetShapes=umlLifeline;portConstraint=eastwest;newEdgeStyle={&quot;curved&quot;:0,&quot;rounded&quot;:0};" parent="1" vertex="1">
          <mxGeometry x="90" y="760" width="10" height="40" as="geometry" />
        </mxCell>
        <mxCell id="w2oMyZCjz0sZhtdzbkaw-140" value="Меню задачи" style="html=1;verticalAlign=bottom;endArrow=open;dashed=1;endSize=8;curved=0;rounded=0;" parent="1" target="w2oMyZCjz0sZhtdzbkaw-138" edge="1">
          <mxGeometry x="-0.0029" relative="1" as="geometry">
            <mxPoint x="255" y="779.55" as="sourcePoint" />
            <mxPoint x="111" y="779.55" as="targetPoint" />
            <mxPoint as="offset" />
          </mxGeometry>
        </mxCell>
        <mxCell id="w2oMyZCjz0sZhtdzbkaw-141" value="" style="endArrow=none;dashed=1;html=1;rounded=0;exitX=-0.04;exitY=-0.02;exitDx=0;exitDy=0;exitPerimeter=0;" parent="1" source="w2oMyZCjz0sZhtdzbkaw-128" edge="1">
          <mxGeometry width="50" height="50" relative="1" as="geometry">
            <mxPoint x="210" y="738" as="sourcePoint" />
            <mxPoint x="580" y="738" as="targetPoint" />
          </mxGeometry>
        </mxCell>
        <mxCell id="w2oMyZCjz0sZhtdzbkaw-143" value="" style="html=1;points=[[0,0,0,0,5],[0,1,0,0,-5],[1,0,0,0,5],[1,1,0,0,-5]];perimeter=orthogonalPerimeter;outlineConnect=0;targetShapes=umlLifeline;portConstraint=eastwest;newEdgeStyle={&quot;curved&quot;:0,&quot;rounded&quot;:0};" parent="1" vertex="1">
          <mxGeometry x="90" y="500" width="10" height="40" as="geometry" />
        </mxCell>
        <mxCell id="w2oMyZCjz0sZhtdzbkaw-144" value="Продление подписки" style="html=1;verticalAlign=bottom;endArrow=block;curved=0;rounded=0;" parent="1" target="w2oMyZCjz0sZhtdzbkaw-145" edge="1">
          <mxGeometry width="80" relative="1" as="geometry">
            <mxPoint x="100" y="520" as="sourcePoint" />
            <mxPoint x="180" y="520" as="targetPoint" />
          </mxGeometry>
        </mxCell>
        <mxCell id="w2oMyZCjz0sZhtdzbkaw-145" value="" style="html=1;points=[[0,0,0,0,5],[0,1,0,0,-5],[1,0,0,0,5],[1,1,0,0,-5]];perimeter=orthogonalPerimeter;outlineConnect=0;targetShapes=umlLifeline;portConstraint=eastwest;newEdgeStyle={&quot;curved&quot;:0,&quot;rounded&quot;:0};" parent="1" vertex="1">
          <mxGeometry x="255" y="500" width="10" height="30" as="geometry" />
        </mxCell>
        <mxCell id="w2oMyZCjz0sZhtdzbkaw-146" value="" style="html=1;points=[[0,0,0,0,5],[0,1,0,0,-5],[1,0,0,0,5],[1,1,0,0,-5]];perimeter=orthogonalPerimeter;outlineConnect=0;targetShapes=umlLifeline;portConstraint=eastwest;newEdgeStyle={&quot;curved&quot;:0,&quot;rounded&quot;:0};" parent="1" vertex="1">
          <mxGeometry x="409" y="510" width="10" height="30" as="geometry" />
        </mxCell>
        <mxCell id="w2oMyZCjz0sZhtdzbkaw-147" value="Время продления" style="html=1;verticalAlign=bottom;endArrow=block;curved=0;rounded=0;entryX=0;entryY=0;entryDx=0;entryDy=5;" parent="1" source="w2oMyZCjz0sZhtdzbkaw-145" target="w2oMyZCjz0sZhtdzbkaw-146" edge="1">
          <mxGeometry relative="1" as="geometry">
            <mxPoint x="339" y="515" as="sourcePoint" />
          </mxGeometry>
        </mxCell>
        <mxCell id="w2oMyZCjz0sZhtdzbkaw-149" value="" style="html=1;points=[[0,0,0,0,5],[0,1,0,0,-5],[1,0,0,0,5],[1,1,0,0,-5]];perimeter=orthogonalPerimeter;outlineConnect=0;targetShapes=umlLifeline;portConstraint=eastwest;newEdgeStyle={&quot;curved&quot;:0,&quot;rounded&quot;:0};" parent="1" vertex="1">
          <mxGeometry x="560" y="520" width="10" height="50" as="geometry" />
        </mxCell>
        <mxCell id="w2oMyZCjz0sZhtdzbkaw-150" value="Обновить данные" style="html=1;verticalAlign=bottom;endArrow=block;curved=0;rounded=0;entryX=0;entryY=0;entryDx=0;entryDy=5;" parent="1" target="w2oMyZCjz0sZhtdzbkaw-149" edge="1">
          <mxGeometry relative="1" as="geometry">
            <mxPoint x="420" y="525" as="sourcePoint" />
          </mxGeometry>
        </mxCell>
        <mxCell id="w2oMyZCjz0sZhtdzbkaw-168" value="" style="html=1;points=[[0,0,0,0,5],[0,1,0,0,-5],[1,0,0,0,5],[1,1,0,0,-5]];perimeter=orthogonalPerimeter;outlineConnect=0;targetShapes=umlLifeline;portConstraint=eastwest;newEdgeStyle={&quot;curved&quot;:0,&quot;rounded&quot;:0};" parent="1" vertex="1">
          <mxGeometry x="255" y="610" width="10" height="40" as="geometry" />
        </mxCell>
        <mxCell id="w2oMyZCjz0sZhtdzbkaw-123" value="alt" style="shape=umlFrame;whiteSpace=wrap;html=1;pointerEvents=0;width=40;height=15;" parent="1" vertex="1">
          <mxGeometry x="60" y="650" width="530" height="300" as="geometry" />
        </mxCell>
        <mxCell id="w2oMyZCjz0sZhtdzbkaw-169" value="" style="html=1;points=[[0,0,0,0,5],[0,1,0,0,-5],[1,0,0,0,5],[1,1,0,0,-5]];perimeter=orthogonalPerimeter;outlineConnect=0;targetShapes=umlLifeline;portConstraint=eastwest;newEdgeStyle={&quot;curved&quot;:0,&quot;rounded&quot;:0};" parent="1" vertex="1">
          <mxGeometry x="255" y="690" width="10" height="40" as="geometry" />
        </mxCell>
        <mxCell id="w2oMyZCjz0sZhtdzbkaw-170" value="" style="html=1;points=[[0,0,0,0,5],[0,1,0,0,-5],[1,0,0,0,5],[1,1,0,0,-5]];perimeter=orthogonalPerimeter;outlineConnect=0;targetShapes=umlLifeline;portConstraint=eastwest;newEdgeStyle={&quot;curved&quot;:0,&quot;rounded&quot;:0};" parent="1" vertex="1">
          <mxGeometry x="255" y="750" width="10" height="40" as="geometry" />
        </mxCell>
        <mxCell id="w2oMyZCjz0sZhtdzbkaw-171" value="" style="endArrow=none;dashed=1;html=1;rounded=0;" parent="1" source="w2oMyZCjz0sZhtdzbkaw-169" edge="1">
          <mxGeometry width="50" height="50" relative="1" as="geometry">
            <mxPoint x="210" y="700" as="sourcePoint" />
            <mxPoint x="260" y="650" as="targetPoint" />
          </mxGeometry>
        </mxCell>
        <mxCell id="w2oMyZCjz0sZhtdzbkaw-172" value="" style="endArrow=none;dashed=1;html=1;rounded=0;" parent="1" source="w2oMyZCjz0sZhtdzbkaw-170" edge="1">
          <mxGeometry width="50" height="50" relative="1" as="geometry">
            <mxPoint x="210" y="780" as="sourcePoint" />
            <mxPoint x="260" y="730" as="targetPoint" />
          </mxGeometry>
        </mxCell>
        <mxCell id="PDmkwRI-ZpfKwhr9b_i3-1" value="" style="endArrow=none;dashed=1;html=1;dashPattern=1 3;strokeWidth=2;rounded=0;entryX=0.5;entryY=1;entryDx=0;entryDy=0;" parent="1" source="w2oMyZCjz0sZhtdzbkaw-138" target="w2oMyZCjz0sZhtdzbkaw-128" edge="1">
          <mxGeometry width="50" height="50" relative="1" as="geometry">
            <mxPoint x="95" y="760" as="sourcePoint" />
            <mxPoint x="95" y="730" as="targetPoint" />
          </mxGeometry>
        </mxCell>
        <mxCell id="w2oMyZCjz0sZhtdzbkaw-128" value="[else]" style="text;html=1;align=center;verticalAlign=middle;resizable=0;points=[];autosize=1;strokeColor=none;fillColor=none;fontSize=8;" parent="1" vertex="1">
          <mxGeometry x="70" y="740" width="40" height="20" as="geometry" />
        </mxCell>
        <mxCell id="PDmkwRI-ZpfKwhr9b_i3-2" value="ref" style="shape=umlFrame;whiteSpace=wrap;html=1;pointerEvents=0;width=40;height=20;" parent="1" vertex="1">
          <mxGeometry x="70" y="800" width="510" height="140" as="geometry" />
        </mxCell>
        <mxCell id="PDmkwRI-ZpfKwhr9b_i3-3" value="[создать задачу]" style="text;html=1;align=center;verticalAlign=middle;resizable=0;points=[];autosize=1;strokeColor=none;fillColor=none;" parent="1" vertex="1">
          <mxGeometry x="70" y="818" width="120" height="30" as="geometry" />
        </mxCell>
        <mxCell id="PDmkwRI-ZpfKwhr9b_i3-4" value="[удалить задачу]" style="text;html=1;align=center;verticalAlign=middle;resizable=0;points=[];autosize=1;strokeColor=none;fillColor=none;" parent="1" vertex="1">
          <mxGeometry x="65" y="860" width="120" height="30" as="geometry" />
        </mxCell>
        <mxCell id="PDmkwRI-ZpfKwhr9b_i3-5" value="[инф о задачах]" style="text;html=1;align=center;verticalAlign=middle;resizable=0;points=[];autosize=1;strokeColor=none;fillColor=none;" parent="1" vertex="1">
          <mxGeometry x="70" y="900" width="110" height="30" as="geometry" />
        </mxCell>
        <mxCell id="PDmkwRI-ZpfKwhr9b_i3-8" value="Поддержка" style="html=1;verticalAlign=bottom;endArrow=block;curved=0;rounded=0;" parent="1" target="PDmkwRI-ZpfKwhr9b_i3-9" edge="1">
          <mxGeometry x="-0.0014" width="80" relative="1" as="geometry">
            <mxPoint x="93" y="980" as="sourcePoint" />
            <mxPoint x="173" y="980" as="targetPoint" />
            <mxPoint as="offset" />
          </mxGeometry>
        </mxCell>
        <mxCell id="PDmkwRI-ZpfKwhr9b_i3-10" value="" style="html=1;points=[[0,0,0,0,5],[0,1,0,0,-5],[1,0,0,0,5],[1,1,0,0,-5]];perimeter=orthogonalPerimeter;outlineConnect=0;targetShapes=umlLifeline;portConstraint=eastwest;newEdgeStyle={&quot;curved&quot;:0,&quot;rounded&quot;:0};" parent="1" vertex="1">
          <mxGeometry x="407" y="970" width="10" height="20" as="geometry" />
        </mxCell>
        <mxCell id="PDmkwRI-ZpfKwhr9b_i3-11" value="Поддержка" style="html=1;verticalAlign=bottom;endArrow=block;curved=0;rounded=0;entryX=0;entryY=0;entryDx=0;entryDy=5;" parent="1" source="PDmkwRI-ZpfKwhr9b_i3-9" target="PDmkwRI-ZpfKwhr9b_i3-10" edge="1">
          <mxGeometry relative="1" as="geometry">
            <mxPoint x="332" y="975" as="sourcePoint" />
            <mxPoint as="offset" />
          </mxGeometry>
        </mxCell>
        <mxCell id="PDmkwRI-ZpfKwhr9b_i3-13" value="Отправка сообщения" style="html=1;verticalAlign=bottom;endArrow=open;dashed=1;endSize=8;curved=0;rounded=0;" parent="1" source="-8yBKGU79CNfWhQ_7WAo-6" target="PDmkwRI-ZpfKwhr9b_i3-7" edge="1">
          <mxGeometry x="0.0027" relative="1" as="geometry">
            <mxPoint x="248" y="1020" as="sourcePoint" />
            <mxPoint x="103" y="1050" as="targetPoint" />
            <mxPoint as="offset" />
            <Array as="points">
              <mxPoint x="148" y="1020" />
            </Array>
          </mxGeometry>
        </mxCell>
        <mxCell id="PDmkwRI-ZpfKwhr9b_i3-14" value="" style="endArrow=none;dashed=1;html=1;dashPattern=1 3;strokeWidth=2;rounded=0;entryX=0.5;entryY=1;entryDx=0;entryDy=0;" parent="1" target="PDmkwRI-ZpfKwhr9b_i3-7" edge="1">
          <mxGeometry width="50" height="50" relative="1" as="geometry">
            <mxPoint x="95" y="1140" as="sourcePoint" />
            <mxPoint x="95" y="780" as="targetPoint" />
          </mxGeometry>
        </mxCell>
        <mxCell id="PDmkwRI-ZpfKwhr9b_i3-7" value="" style="html=1;points=[[0,0,0,0,5],[0,1,0,0,-5],[1,0,0,0,5],[1,1,0,0,-5]];perimeter=orthogonalPerimeter;outlineConnect=0;targetShapes=umlLifeline;portConstraint=eastwest;newEdgeStyle={&quot;curved&quot;:0,&quot;rounded&quot;:0};" parent="1" vertex="1">
          <mxGeometry x="88" y="960" width="10" height="70" as="geometry" />
        </mxCell>
        <mxCell id="PDmkwRI-ZpfKwhr9b_i3-17" value="" style="endArrow=none;dashed=1;html=1;rounded=0;entryX=0.999;entryY=0.29;entryDx=0;entryDy=0;entryPerimeter=0;" parent="1" edge="1">
          <mxGeometry width="50" height="50" relative="1" as="geometry">
            <mxPoint x="70.51" y="850" as="sourcePoint" />
            <mxPoint x="580" y="848" as="targetPoint" />
          </mxGeometry>
        </mxCell>
        <mxCell id="PDmkwRI-ZpfKwhr9b_i3-18" value="" style="endArrow=none;dashed=1;html=1;rounded=0;entryX=0.999;entryY=0.29;entryDx=0;entryDy=0;entryPerimeter=0;" parent="1" edge="1">
          <mxGeometry width="50" height="50" relative="1" as="geometry">
            <mxPoint x="70" y="900" as="sourcePoint" />
            <mxPoint x="579" y="898" as="targetPoint" />
          </mxGeometry>
        </mxCell>
        <mxCell id="PDmkwRI-ZpfKwhr9b_i3-20" value="" style="endArrow=none;dashed=1;html=1;dashPattern=1 3;strokeWidth=2;rounded=0;" parent="1" source="-8yBKGU79CNfWhQ_7WAo-6" target="PDmkwRI-ZpfKwhr9b_i3-9" edge="1">
          <mxGeometry width="50" height="50" relative="1" as="geometry">
            <mxPoint x="258" y="1110" as="sourcePoint" />
            <mxPoint x="258" y="740" as="targetPoint" />
          </mxGeometry>
        </mxCell>
        <mxCell id="PDmkwRI-ZpfKwhr9b_i3-9" value="" style="html=1;points=[[0,0,0,0,5],[0,1,0,0,-5],[1,0,0,0,5],[1,1,0,0,-5]];perimeter=orthogonalPerimeter;outlineConnect=0;targetShapes=umlLifeline;portConstraint=eastwest;newEdgeStyle={&quot;curved&quot;:0,&quot;rounded&quot;:0};" parent="1" vertex="1">
          <mxGeometry x="253" y="960" width="10" height="30" as="geometry" />
        </mxCell>
        <mxCell id="-8yBKGU79CNfWhQ_7WAo-3" value="" style="html=1;points=[[0,0,0,0,5],[0,1,0,0,-5],[1,0,0,0,5],[1,1,0,0,-5]];perimeter=orthogonalPerimeter;outlineConnect=0;targetShapes=umlLifeline;portConstraint=eastwest;newEdgeStyle={&quot;curved&quot;:0,&quot;rounded&quot;:0};" parent="1" vertex="1">
          <mxGeometry x="407" y="1000" width="10" height="30" as="geometry" />
        </mxCell>
        <mxCell id="-8yBKGU79CNfWhQ_7WAo-4" value="Генерация &lt;br&gt;сообщения" style="html=1;align=left;spacingLeft=2;endArrow=block;rounded=0;edgeStyle=orthogonalEdgeStyle;curved=0;rounded=0;" parent="1" target="-8yBKGU79CNfWhQ_7WAo-3" edge="1">
          <mxGeometry relative="1" as="geometry">
            <mxPoint x="412" y="980" as="sourcePoint" />
            <Array as="points">
              <mxPoint x="442" y="1010" />
            </Array>
          </mxGeometry>
        </mxCell>
        <mxCell id="-8yBKGU79CNfWhQ_7WAo-5" value="" style="endArrow=none;dashed=1;html=1;dashPattern=1 3;strokeWidth=2;rounded=0;" parent="1" target="-8yBKGU79CNfWhQ_7WAo-6" edge="1">
          <mxGeometry width="50" height="50" relative="1" as="geometry">
            <mxPoint x="260" y="1140" as="sourcePoint" />
            <mxPoint x="260" y="1020" as="targetPoint" />
          </mxGeometry>
        </mxCell>
        <mxCell id="-8yBKGU79CNfWhQ_7WAo-6" value="" style="html=1;points=[[0,0,0,0,5],[0,1,0,0,-5],[1,0,0,0,5],[1,1,0,0,-5]];perimeter=orthogonalPerimeter;outlineConnect=0;targetShapes=umlLifeline;portConstraint=eastwest;newEdgeStyle={&quot;curved&quot;:0,&quot;rounded&quot;:0};" parent="1" vertex="1">
          <mxGeometry x="253" y="1000" width="10" height="30" as="geometry" />
        </mxCell>
        <mxCell id="-8yBKGU79CNfWhQ_7WAo-7" value="Отправка сообщения" style="html=1;verticalAlign=bottom;endArrow=open;dashed=1;endSize=8;curved=0;rounded=0;" parent="1" source="-8yBKGU79CNfWhQ_7WAo-3" target="-8yBKGU79CNfWhQ_7WAo-6" edge="1">
          <mxGeometry x="0.0027" relative="1" as="geometry">
            <mxPoint x="417" y="1014.5" as="sourcePoint" />
            <mxPoint x="262" y="1014.5" as="targetPoint" />
            <mxPoint as="offset" />
            <Array as="points">
              <mxPoint x="312" y="1014.5" />
            </Array>
          </mxGeometry>
        </mxCell>
        <mxCell id="e6jYAYjG6SPio9JDinUB-1" value="Сообщение о успешном продлении" style="html=1;verticalAlign=bottom;endArrow=open;dashed=1;endSize=8;curved=0;rounded=0;exitX=0;exitY=0.8;exitDx=0;exitDy=0;exitPerimeter=0;" parent="1" source="w2oMyZCjz0sZhtdzbkaw-149" target="e6jYAYjG6SPio9JDinUB-2" edge="1">
          <mxGeometry relative="1" as="geometry">
            <mxPoint x="560" y="544.5" as="sourcePoint" />
            <mxPoint x="260" y="544.5" as="targetPoint" />
          </mxGeometry>
        </mxCell>
        <mxCell id="e6jYAYjG6SPio9JDinUB-3" value="" style="endArrow=none;dashed=1;html=1;dashPattern=1 3;strokeWidth=2;rounded=0;entryX=0.5;entryY=1;entryDx=0;entryDy=0;" parent="1" source="w2oMyZCjz0sZhtdzbkaw-168" target="e6jYAYjG6SPio9JDinUB-2" edge="1">
          <mxGeometry width="50" height="50" relative="1" as="geometry">
            <mxPoint x="260" y="630" as="sourcePoint" />
            <mxPoint x="260" y="480" as="targetPoint" />
          </mxGeometry>
        </mxCell>
        <mxCell id="e6jYAYjG6SPio9JDinUB-2" value="" style="html=1;points=[[0,0,0,0,5],[0,1,0,0,-5],[1,0,0,0,5],[1,1,0,0,-5]];perimeter=orthogonalPerimeter;outlineConnect=0;targetShapes=umlLifeline;portConstraint=eastwest;newEdgeStyle={&quot;curved&quot;:0,&quot;rounded&quot;:0};" parent="1" vertex="1">
          <mxGeometry x="255" y="550" width="10" height="20" as="geometry" />
        </mxCell>
      </root>
    </mxGraphModel>
  </diagram>
  <diagram id="VRixkl1aoAtQxPczdwPw" name="создание задачи">
    <mxGraphModel dx="1026" dy="743" grid="1" gridSize="10" guides="1" tooltips="1" connect="1" arrows="1" fold="1" page="1" pageScale="1" pageWidth="827" pageHeight="1169" math="0" shadow="0">
      <root>
        <mxCell id="0" />
        <mxCell id="1" parent="0" />
        <mxCell id="z4OTO5is2HJirle241Zk-29" value="Создать задачу" style="html=1;verticalAlign=bottom;endArrow=block;curved=0;rounded=0;" parent="1" target="z4OTO5is2HJirle241Zk-31" edge="1">
          <mxGeometry x="0.0036" width="80" relative="1" as="geometry">
            <mxPoint x="140" y="240" as="sourcePoint" />
            <mxPoint x="290" y="240" as="targetPoint" />
            <mxPoint as="offset" />
          </mxGeometry>
        </mxCell>
        <mxCell id="z4OTO5is2HJirle241Zk-30" value="" style="endArrow=none;dashed=1;html=1;dashPattern=1 3;strokeWidth=2;rounded=0;entryX=0.5;entryY=1;entryDx=0;entryDy=0;" parent="1" source="z4OTO5is2HJirle241Zk-50" target="z4OTO5is2HJirle241Zk-31" edge="1">
          <mxGeometry width="50" height="50" relative="1" as="geometry">
            <mxPoint x="300" y="550" as="sourcePoint" />
            <mxPoint x="300" y="170" as="targetPoint" />
          </mxGeometry>
        </mxCell>
        <mxCell id="z4OTO5is2HJirle241Zk-31" value="" style="html=1;points=[[0,0,0,0,5],[0,1,0,0,-5],[1,0,0,0,5],[1,1,0,0,-5]];perimeter=orthogonalPerimeter;outlineConnect=0;targetShapes=umlLifeline;portConstraint=eastwest;newEdgeStyle={&quot;curved&quot;:0,&quot;rounded&quot;:0};" parent="1" vertex="1">
          <mxGeometry x="295" y="230" width="10" height="30" as="geometry" />
        </mxCell>
        <mxCell id="z4OTO5is2HJirle241Zk-32" value="Проверяем кол-во&lt;br&gt;&amp;nbsp;задач" style="html=1;verticalAlign=bottom;endArrow=block;curved=0;rounded=0;entryX=0;entryY=0;entryDx=0;entryDy=5;entryPerimeter=0;" parent="1" source="z4OTO5is2HJirle241Zk-31" target="z4OTO5is2HJirle241Zk-33" edge="1">
          <mxGeometry width="80" relative="1" as="geometry">
            <mxPoint x="310" y="240" as="sourcePoint" />
            <mxPoint x="440" y="240" as="targetPoint" />
          </mxGeometry>
        </mxCell>
        <mxCell id="z4OTO5is2HJirle241Zk-33" value="" style="html=1;points=[[0,0,0,0,5],[0,1,0,0,-5],[1,0,0,0,5],[1,1,0,0,-5]];perimeter=orthogonalPerimeter;outlineConnect=0;targetShapes=umlLifeline;portConstraint=eastwest;newEdgeStyle={&quot;curved&quot;:0,&quot;rounded&quot;:0};" parent="1" vertex="1">
          <mxGeometry x="449" y="230" width="10" height="180" as="geometry" />
        </mxCell>
        <mxCell id="z4OTO5is2HJirle241Zk-34" value="alt" style="shape=umlFrame;whiteSpace=wrap;html=1;pointerEvents=0;width=40;height=15;" parent="1" vertex="1">
          <mxGeometry x="250" y="260" width="370" height="160" as="geometry" />
        </mxCell>
        <mxCell id="z4OTO5is2HJirle241Zk-35" value="" style="html=1;points=[[0,0,0,0,5],[0,1,0,0,-5],[1,0,0,0,5],[1,1,0,0,-5]];perimeter=orthogonalPerimeter;outlineConnect=0;targetShapes=umlLifeline;portConstraint=eastwest;newEdgeStyle={&quot;curved&quot;:0,&quot;rounded&quot;:0};" parent="1" vertex="1">
          <mxGeometry x="600" y="230" width="10" height="60" as="geometry" />
        </mxCell>
        <mxCell id="z4OTO5is2HJirle241Zk-36" value="Запрос о кол-ве&lt;br&gt;задач" style="html=1;verticalAlign=bottom;endArrow=block;curved=0;rounded=0;entryX=0;entryY=0;entryDx=0;entryDy=5;exitX=1;exitY=0;exitDx=0;exitDy=5;exitPerimeter=0;" parent="1" source="z4OTO5is2HJirle241Zk-33" target="z4OTO5is2HJirle241Zk-35" edge="1">
          <mxGeometry relative="1" as="geometry">
            <mxPoint x="530" y="235" as="sourcePoint" />
          </mxGeometry>
        </mxCell>
        <mxCell id="z4OTO5is2HJirle241Zk-37" value="Кол-во задач" style="html=1;verticalAlign=bottom;endArrow=open;dashed=1;endSize=8;curved=0;rounded=0;exitX=0;exitY=1;exitDx=0;exitDy=-5;" parent="1" source="z4OTO5is2HJirle241Zk-35" target="z4OTO5is2HJirle241Zk-33" edge="1">
          <mxGeometry relative="1" as="geometry">
            <mxPoint x="530" y="305" as="targetPoint" />
          </mxGeometry>
        </mxCell>
        <mxCell id="z4OTO5is2HJirle241Zk-38" value="[task&amp;nbsp; &amp;gt;&amp;nbsp; 5]" style="text;html=1;align=center;verticalAlign=middle;resizable=0;points=[];autosize=1;strokeColor=none;fillColor=none;" parent="1" vertex="1">
          <mxGeometry x="245" y="280" width="80" height="30" as="geometry" />
        </mxCell>
        <mxCell id="z4OTO5is2HJirle241Zk-39" value="" style="html=1;points=[[0,0,0,0,5],[0,1,0,0,-5],[1,0,0,0,5],[1,1,0,0,-5]];perimeter=orthogonalPerimeter;outlineConnect=0;targetShapes=umlLifeline;portConstraint=eastwest;newEdgeStyle={&quot;curved&quot;:0,&quot;rounded&quot;:0};" parent="1" vertex="1">
          <mxGeometry x="295" y="310" width="10" height="40" as="geometry" />
        </mxCell>
        <mxCell id="z4OTO5is2HJirle241Zk-40" value="сообщение об ошибке" style="html=1;verticalAlign=bottom;endArrow=open;dashed=1;endSize=8;curved=0;rounded=0;" parent="1" target="z4OTO5is2HJirle241Zk-39" edge="1">
          <mxGeometry x="-0.0038" relative="1" as="geometry">
            <mxPoint x="450" y="330" as="sourcePoint" />
            <mxPoint x="370" y="330" as="targetPoint" />
            <mxPoint as="offset" />
          </mxGeometry>
        </mxCell>
        <mxCell id="z4OTO5is2HJirle241Zk-41" value="Сообщение об ошибке" style="html=1;verticalAlign=bottom;endArrow=open;dashed=1;endSize=8;curved=0;rounded=0;" parent="1" target="z4OTO5is2HJirle241Zk-43" edge="1">
          <mxGeometry x="-0.0108" relative="1" as="geometry">
            <mxPoint x="295" y="329.44000000000005" as="sourcePoint" />
            <mxPoint x="150" y="329" as="targetPoint" />
            <mxPoint as="offset" />
          </mxGeometry>
        </mxCell>
        <mxCell id="z4OTO5is2HJirle241Zk-44" value="" style="html=1;points=[[0,0,0,0,5],[0,1,0,0,-5],[1,0,0,0,5],[1,1,0,0,-5]];perimeter=orthogonalPerimeter;outlineConnect=0;targetShapes=umlLifeline;portConstraint=eastwest;newEdgeStyle={&quot;curved&quot;:0,&quot;rounded&quot;:0};" parent="1" vertex="1">
          <mxGeometry x="295" y="370" width="10" height="40" as="geometry" />
        </mxCell>
        <mxCell id="z4OTO5is2HJirle241Zk-45" value="[else]" style="text;html=1;align=center;verticalAlign=middle;resizable=0;points=[];autosize=1;strokeColor=none;fillColor=none;" parent="1" vertex="1">
          <mxGeometry x="245" y="350" width="50" height="30" as="geometry" />
        </mxCell>
        <mxCell id="z4OTO5is2HJirle241Zk-46" value="сообщение об &lt;br&gt;вводе данных" style="html=1;verticalAlign=bottom;endArrow=open;dashed=1;endSize=8;curved=0;rounded=0;" parent="1" edge="1">
          <mxGeometry x="-0.0038" relative="1" as="geometry">
            <mxPoint x="449" y="380" as="sourcePoint" />
            <mxPoint x="304" y="380" as="targetPoint" />
            <mxPoint as="offset" />
          </mxGeometry>
        </mxCell>
        <mxCell id="z4OTO5is2HJirle241Zk-47" value="сообщение об &lt;br&gt;вводе данных" style="html=1;verticalAlign=bottom;endArrow=open;dashed=1;endSize=8;curved=0;rounded=0;" parent="1" source="z4OTO5is2HJirle241Zk-44" edge="1">
          <mxGeometry x="0.3548" relative="1" as="geometry">
            <mxPoint x="285" y="380" as="sourcePoint" />
            <mxPoint x="140" y="380" as="targetPoint" />
            <mxPoint x="-1" as="offset" />
          </mxGeometry>
        </mxCell>
        <mxCell id="z4OTO5is2HJirle241Zk-49" value="Ввод ссылки" style="html=1;verticalAlign=bottom;endArrow=block;curved=0;rounded=0;exitX=1.067;exitY=0.834;exitDx=0;exitDy=0;exitPerimeter=0;" parent="1" source="z4OTO5is2HJirle241Zk-48" target="z4OTO5is2HJirle241Zk-50" edge="1">
          <mxGeometry x="-0.0065" width="80" relative="1" as="geometry">
            <mxPoint x="130" y="450" as="sourcePoint" />
            <mxPoint x="285" y="450" as="targetPoint" />
            <mxPoint as="offset" />
          </mxGeometry>
        </mxCell>
        <mxCell id="z4OTO5is2HJirle241Zk-50" value="" style="html=1;points=[[0,0,0,0,5],[0,1,0,0,-5],[1,0,0,0,5],[1,1,0,0,-5]];perimeter=orthogonalPerimeter;outlineConnect=0;targetShapes=umlLifeline;portConstraint=eastwest;newEdgeStyle={&quot;curved&quot;:0,&quot;rounded&quot;:0};" parent="1" vertex="1">
          <mxGeometry x="295" y="440" width="10" height="20" as="geometry" />
        </mxCell>
        <mxCell id="z4OTO5is2HJirle241Zk-51" value="" style="html=1;points=[[0,0,0,0,5],[0,1,0,0,-5],[1,0,0,0,5],[1,1,0,0,-5]];perimeter=orthogonalPerimeter;outlineConnect=0;targetShapes=umlLifeline;portConstraint=eastwest;newEdgeStyle={&quot;curved&quot;:0,&quot;rounded&quot;:0};" parent="1" vertex="1">
          <mxGeometry x="449" y="440" width="10" height="20" as="geometry" />
        </mxCell>
        <mxCell id="z4OTO5is2HJirle241Zk-52" value="Введенные данные" style="html=1;verticalAlign=bottom;endArrow=block;curved=0;rounded=0;" parent="1" edge="1">
          <mxGeometry relative="1" as="geometry">
            <mxPoint x="305" y="450" as="sourcePoint" />
            <mxPoint x="449" y="450" as="targetPoint" />
          </mxGeometry>
        </mxCell>
        <mxCell id="RaCZPGHy8SC5pGCzJy_n-1" value="" style="shape=umlActor;verticalLabelPosition=bottom;verticalAlign=top;html=1;" parent="1" vertex="1">
          <mxGeometry x="120" y="75" width="30" height="60" as="geometry" />
        </mxCell>
        <mxCell id="RaCZPGHy8SC5pGCzJy_n-2" value="" style="shape=umlBoundary;whiteSpace=wrap;html=1;" parent="1" vertex="1">
          <mxGeometry x="260" y="70" width="80" height="70" as="geometry" />
        </mxCell>
        <mxCell id="RaCZPGHy8SC5pGCzJy_n-3" value="" style="ellipse;shape=umlControl;whiteSpace=wrap;html=1;" parent="1" vertex="1">
          <mxGeometry x="419" y="60" width="70" height="80" as="geometry" />
        </mxCell>
        <mxCell id="RaCZPGHy8SC5pGCzJy_n-4" value="" style="ellipse;shape=umlEntity;whiteSpace=wrap;html=1;" parent="1" vertex="1">
          <mxGeometry x="570" y="70" width="70" height="70" as="geometry" />
        </mxCell>
        <mxCell id="RaCZPGHy8SC5pGCzJy_n-5" value=": Клиент" style="rounded=1;whiteSpace=wrap;html=1;" parent="1" vertex="1">
          <mxGeometry x="90" y="150" width="90" height="40" as="geometry" />
        </mxCell>
        <mxCell id="RaCZPGHy8SC5pGCzJy_n-6" value=": Интерфейс клиента" style="rounded=1;whiteSpace=wrap;html=1;" parent="1" vertex="1">
          <mxGeometry x="260" y="150" width="90" height="40" as="geometry" />
        </mxCell>
        <mxCell id="RaCZPGHy8SC5pGCzJy_n-7" value=": Система" style="rounded=1;whiteSpace=wrap;html=1;" parent="1" vertex="1">
          <mxGeometry x="409" y="150" width="90" height="40" as="geometry" />
        </mxCell>
        <mxCell id="RaCZPGHy8SC5pGCzJy_n-8" value=": Данные" style="rounded=1;whiteSpace=wrap;html=1;" parent="1" vertex="1">
          <mxGeometry x="560" y="150" width="90" height="40" as="geometry" />
        </mxCell>
        <mxCell id="RaCZPGHy8SC5pGCzJy_n-10" value="" style="endArrow=none;dashed=1;html=1;dashPattern=1 3;strokeWidth=2;rounded=0;entryX=0.5;entryY=1;entryDx=0;entryDy=0;" parent="1" source="z4OTO5is2HJirle241Zk-28" target="RaCZPGHy8SC5pGCzJy_n-5" edge="1">
          <mxGeometry width="50" height="50" relative="1" as="geometry">
            <mxPoint x="135" y="580" as="sourcePoint" />
            <mxPoint x="140" y="190" as="targetPoint" />
            <Array as="points" />
          </mxGeometry>
        </mxCell>
        <mxCell id="RaCZPGHy8SC5pGCzJy_n-11" value="" style="endArrow=none;dashed=1;html=1;dashPattern=1 3;strokeWidth=2;rounded=0;entryX=0.5;entryY=1;entryDx=0;entryDy=0;" parent="1" source="RaCZPGHy8SC5pGCzJy_n-28" target="z4OTO5is2HJirle241Zk-48" edge="1">
          <mxGeometry width="50" height="50" relative="1" as="geometry">
            <mxPoint x="135" y="580" as="sourcePoint" />
            <mxPoint x="135" y="190" as="targetPoint" />
          </mxGeometry>
        </mxCell>
        <mxCell id="z4OTO5is2HJirle241Zk-48" value="" style="html=1;points=[[0,0,0,0,5],[0,1,0,0,-5],[1,0,0,0,5],[1,1,0,0,-5]];perimeter=orthogonalPerimeter;outlineConnect=0;targetShapes=umlLifeline;portConstraint=eastwest;newEdgeStyle={&quot;curved&quot;:0,&quot;rounded&quot;:0};" parent="1" vertex="1">
          <mxGeometry x="130" y="370" width="10" height="100" as="geometry" />
        </mxCell>
        <mxCell id="RaCZPGHy8SC5pGCzJy_n-13" value="" style="endArrow=none;dashed=1;html=1;dashPattern=1 3;strokeWidth=2;rounded=0;entryX=0.5;entryY=1;entryDx=0;entryDy=0;" parent="1" source="z4OTO5is2HJirle241Zk-43" target="z4OTO5is2HJirle241Zk-28" edge="1">
          <mxGeometry width="50" height="50" relative="1" as="geometry">
            <mxPoint x="135" y="370" as="sourcePoint" />
            <mxPoint x="135" y="190" as="targetPoint" />
            <Array as="points" />
          </mxGeometry>
        </mxCell>
        <mxCell id="z4OTO5is2HJirle241Zk-28" value="" style="html=1;points=[[0,0,0,0,5],[0,1,0,0,-5],[1,0,0,0,5],[1,1,0,0,-5]];perimeter=orthogonalPerimeter;outlineConnect=0;targetShapes=umlLifeline;portConstraint=eastwest;newEdgeStyle={&quot;curved&quot;:0,&quot;rounded&quot;:0};" parent="1" vertex="1">
          <mxGeometry x="130" y="230" width="10" height="30" as="geometry" />
        </mxCell>
        <mxCell id="RaCZPGHy8SC5pGCzJy_n-14" value="" style="endArrow=none;dashed=1;html=1;dashPattern=1 3;strokeWidth=2;rounded=0;entryX=0.5;entryY=1;entryDx=0;entryDy=0;" parent="1" source="z4OTO5is2HJirle241Zk-48" target="z4OTO5is2HJirle241Zk-43" edge="1">
          <mxGeometry width="50" height="50" relative="1" as="geometry">
            <mxPoint x="135" y="370" as="sourcePoint" />
            <mxPoint x="135" y="260" as="targetPoint" />
            <Array as="points">
              <mxPoint x="135" y="320" />
            </Array>
          </mxGeometry>
        </mxCell>
        <mxCell id="z4OTO5is2HJirle241Zk-43" value="" style="html=1;points=[[0,0,0,0,5],[0,1,0,0,-5],[1,0,0,0,5],[1,1,0,0,-5]];perimeter=orthogonalPerimeter;outlineConnect=0;targetShapes=umlLifeline;portConstraint=eastwest;newEdgeStyle={&quot;curved&quot;:0,&quot;rounded&quot;:0};" parent="1" vertex="1">
          <mxGeometry x="130" y="305" width="10" height="30" as="geometry" />
        </mxCell>
        <mxCell id="RaCZPGHy8SC5pGCzJy_n-15" value="" style="endArrow=none;dashed=1;html=1;rounded=0;" parent="1" source="z4OTO5is2HJirle241Zk-31" edge="1">
          <mxGeometry width="50" height="50" relative="1" as="geometry">
            <mxPoint x="250" y="240" as="sourcePoint" />
            <mxPoint x="300" y="190" as="targetPoint" />
          </mxGeometry>
        </mxCell>
        <mxCell id="RaCZPGHy8SC5pGCzJy_n-16" value="" style="endArrow=none;dashed=1;html=1;dashPattern=1 3;strokeWidth=2;rounded=0;entryX=0.5;entryY=1;entryDx=0;entryDy=0;" parent="1" source="z4OTO5is2HJirle241Zk-33" target="RaCZPGHy8SC5pGCzJy_n-7" edge="1">
          <mxGeometry width="50" height="50" relative="1" as="geometry">
            <mxPoint x="450" y="220" as="sourcePoint" />
            <mxPoint x="460" y="190" as="targetPoint" />
          </mxGeometry>
        </mxCell>
        <mxCell id="RaCZPGHy8SC5pGCzJy_n-17" value="" style="endArrow=none;dashed=1;html=1;dashPattern=1 3;strokeWidth=2;rounded=0;entryX=0.5;entryY=1;entryDx=0;entryDy=0;" parent="1" edge="1">
          <mxGeometry width="50" height="50" relative="1" as="geometry">
            <mxPoint x="604.74" y="230" as="sourcePoint" />
            <mxPoint x="604.74" y="190" as="targetPoint" />
          </mxGeometry>
        </mxCell>
        <mxCell id="RaCZPGHy8SC5pGCzJy_n-18" value="" style="endArrow=none;dashed=1;html=1;dashPattern=1 3;strokeWidth=2;rounded=0;" parent="1" source="z4OTO5is2HJirle241Zk-33" target="z4OTO5is2HJirle241Zk-51" edge="1">
          <mxGeometry width="50" height="50" relative="1" as="geometry">
            <mxPoint x="270" y="630" as="sourcePoint" />
            <mxPoint x="320" y="580" as="targetPoint" />
          </mxGeometry>
        </mxCell>
        <mxCell id="RaCZPGHy8SC5pGCzJy_n-19" value="" style="endArrow=none;dashed=1;html=1;dashPattern=1 3;strokeWidth=2;rounded=0;" parent="1" source="RaCZPGHy8SC5pGCzJy_n-41" target="z4OTO5is2HJirle241Zk-35" edge="1">
          <mxGeometry width="50" height="50" relative="1" as="geometry">
            <mxPoint x="605" y="670" as="sourcePoint" />
            <mxPoint x="720" y="410" as="targetPoint" />
          </mxGeometry>
        </mxCell>
        <mxCell id="RaCZPGHy8SC5pGCzJy_n-21" value="проверка ссылки" style="html=1;align=left;spacingLeft=2;endArrow=block;rounded=0;edgeStyle=orthogonalEdgeStyle;curved=0;rounded=0;" parent="1" target="RaCZPGHy8SC5pGCzJy_n-20" edge="1">
          <mxGeometry relative="1" as="geometry">
            <mxPoint x="460" y="450" as="sourcePoint" />
            <Array as="points">
              <mxPoint x="480" y="450" />
              <mxPoint x="480" y="500" />
            </Array>
          </mxGeometry>
        </mxCell>
        <mxCell id="RaCZPGHy8SC5pGCzJy_n-22" value="" style="endArrow=none;dashed=1;html=1;dashPattern=1 3;strokeWidth=2;rounded=0;" parent="1" source="RaCZPGHy8SC5pGCzJy_n-20" edge="1">
          <mxGeometry width="50" height="50" relative="1" as="geometry">
            <mxPoint x="454.5" y="780" as="sourcePoint" />
            <mxPoint x="453.5" y="460" as="targetPoint" />
          </mxGeometry>
        </mxCell>
        <mxCell id="RaCZPGHy8SC5pGCzJy_n-23" value="" style="endArrow=none;dashed=1;html=1;dashPattern=1 3;strokeWidth=2;rounded=0;" parent="1" source="RaCZPGHy8SC5pGCzJy_n-38" target="RaCZPGHy8SC5pGCzJy_n-20" edge="1">
          <mxGeometry width="50" height="50" relative="1" as="geometry">
            <mxPoint x="454.5" y="780" as="sourcePoint" />
            <mxPoint x="453.5" y="460" as="targetPoint" />
          </mxGeometry>
        </mxCell>
        <mxCell id="RaCZPGHy8SC5pGCzJy_n-20" value="" style="html=1;points=[[0,0,0,0,5],[0,1,0,0,-5],[1,0,0,0,5],[1,1,0,0,-5]];perimeter=orthogonalPerimeter;outlineConnect=0;targetShapes=umlLifeline;portConstraint=eastwest;newEdgeStyle={&quot;curved&quot;:0,&quot;rounded&quot;:0};" parent="1" vertex="1">
          <mxGeometry x="449" y="480" width="10" height="30" as="geometry" />
        </mxCell>
        <mxCell id="RaCZPGHy8SC5pGCzJy_n-27" value="" style="endArrow=none;dashed=1;html=1;dashPattern=1 3;strokeWidth=2;rounded=0;entryX=0.5;entryY=1;entryDx=0;entryDy=0;" parent="1" target="RaCZPGHy8SC5pGCzJy_n-28" edge="1">
          <mxGeometry width="50" height="50" relative="1" as="geometry">
            <mxPoint x="135" y="660" as="sourcePoint" />
            <mxPoint x="135" y="470" as="targetPoint" />
          </mxGeometry>
        </mxCell>
        <mxCell id="RaCZPGHy8SC5pGCzJy_n-28" value="" style="html=1;points=[[0,0,0,0,5],[0,1,0,0,-5],[1,0,0,0,5],[1,1,0,0,-5]];perimeter=orthogonalPerimeter;outlineConnect=0;targetShapes=umlLifeline;portConstraint=eastwest;newEdgeStyle={&quot;curved&quot;:0,&quot;rounded&quot;:0};" parent="1" vertex="1">
          <mxGeometry x="130" y="490" width="10" height="70" as="geometry" />
        </mxCell>
        <mxCell id="RaCZPGHy8SC5pGCzJy_n-29" value="" style="endArrow=none;dashed=1;html=1;dashPattern=1 3;strokeWidth=2;rounded=0;" parent="1" source="RaCZPGHy8SC5pGCzJy_n-30" edge="1">
          <mxGeometry width="50" height="50" relative="1" as="geometry">
            <mxPoint x="300" y="780" as="sourcePoint" />
            <mxPoint x="300" y="460" as="targetPoint" />
          </mxGeometry>
        </mxCell>
        <mxCell id="RaCZPGHy8SC5pGCzJy_n-31" value="" style="endArrow=none;dashed=1;html=1;dashPattern=1 3;strokeWidth=2;rounded=0;" parent="1" source="RaCZPGHy8SC5pGCzJy_n-35" target="RaCZPGHy8SC5pGCzJy_n-30" edge="1">
          <mxGeometry width="50" height="50" relative="1" as="geometry">
            <mxPoint x="300" y="780" as="sourcePoint" />
            <mxPoint x="300" y="460" as="targetPoint" />
          </mxGeometry>
        </mxCell>
        <mxCell id="RaCZPGHy8SC5pGCzJy_n-30" value="" style="html=1;points=[[0,0,0,0,5],[0,1,0,0,-5],[1,0,0,0,5],[1,1,0,0,-5]];perimeter=orthogonalPerimeter;outlineConnect=0;targetShapes=umlLifeline;portConstraint=eastwest;newEdgeStyle={&quot;curved&quot;:0,&quot;rounded&quot;:0};" parent="1" vertex="1">
          <mxGeometry x="295" y="480" width="10" height="40" as="geometry" />
        </mxCell>
        <mxCell id="RaCZPGHy8SC5pGCzJy_n-32" value="Сообщение о вводе&lt;br&gt;названия" style="html=1;verticalAlign=bottom;endArrow=open;dashed=1;endSize=8;curved=0;rounded=0;" parent="1" target="RaCZPGHy8SC5pGCzJy_n-30" edge="1">
          <mxGeometry relative="1" as="geometry">
            <mxPoint x="450" y="500" as="sourcePoint" />
            <mxPoint x="370" y="500" as="targetPoint" />
          </mxGeometry>
        </mxCell>
        <mxCell id="RaCZPGHy8SC5pGCzJy_n-33" value="Сообщение о вводе&lt;br&gt;названия" style="html=1;verticalAlign=bottom;endArrow=open;dashed=1;endSize=8;curved=0;rounded=0;" parent="1" target="RaCZPGHy8SC5pGCzJy_n-28" edge="1">
          <mxGeometry relative="1" as="geometry">
            <mxPoint x="295" y="499.57" as="sourcePoint" />
            <mxPoint x="150" y="499.57" as="targetPoint" />
          </mxGeometry>
        </mxCell>
        <mxCell id="RaCZPGHy8SC5pGCzJy_n-34" value="Ввод названия" style="html=1;verticalAlign=bottom;endArrow=block;curved=0;rounded=0;" parent="1" target="RaCZPGHy8SC5pGCzJy_n-35" edge="1">
          <mxGeometry width="80" relative="1" as="geometry">
            <mxPoint x="140" y="540" as="sourcePoint" />
            <mxPoint x="220" y="540" as="targetPoint" />
          </mxGeometry>
        </mxCell>
        <mxCell id="RaCZPGHy8SC5pGCzJy_n-36" value="" style="endArrow=none;dashed=1;html=1;dashPattern=1 3;strokeWidth=2;rounded=0;" parent="1" source="RaCZPGHy8SC5pGCzJy_n-44" target="RaCZPGHy8SC5pGCzJy_n-35" edge="1">
          <mxGeometry width="50" height="50" relative="1" as="geometry">
            <mxPoint x="300" y="720" as="sourcePoint" />
            <mxPoint x="300" y="460" as="targetPoint" />
          </mxGeometry>
        </mxCell>
        <mxCell id="RaCZPGHy8SC5pGCzJy_n-35" value="" style="html=1;points=[[0,0,0,0,5],[0,1,0,0,-5],[1,0,0,0,5],[1,1,0,0,-5]];perimeter=orthogonalPerimeter;outlineConnect=0;targetShapes=umlLifeline;portConstraint=eastwest;newEdgeStyle={&quot;curved&quot;:0,&quot;rounded&quot;:0};" parent="1" vertex="1">
          <mxGeometry x="295" y="530" width="10" height="30" as="geometry" />
        </mxCell>
        <mxCell id="RaCZPGHy8SC5pGCzJy_n-37" value="Введенные данные&amp;nbsp;" style="html=1;verticalAlign=bottom;endArrow=block;curved=0;rounded=0;" parent="1" target="RaCZPGHy8SC5pGCzJy_n-38" edge="1">
          <mxGeometry width="80" relative="1" as="geometry">
            <mxPoint x="305" y="540" as="sourcePoint" />
            <mxPoint x="385" y="540" as="targetPoint" />
          </mxGeometry>
        </mxCell>
        <mxCell id="RaCZPGHy8SC5pGCzJy_n-39" value="" style="endArrow=none;dashed=1;html=1;dashPattern=1 3;strokeWidth=2;rounded=0;" parent="1" target="RaCZPGHy8SC5pGCzJy_n-38" edge="1">
          <mxGeometry width="50" height="50" relative="1" as="geometry">
            <mxPoint x="455" y="680" as="sourcePoint" />
            <mxPoint x="455" y="450" as="targetPoint" />
          </mxGeometry>
        </mxCell>
        <mxCell id="RaCZPGHy8SC5pGCzJy_n-38" value="" style="html=1;points=[[0,0,0,0,5],[0,1,0,0,-5],[1,0,0,0,5],[1,1,0,0,-5]];perimeter=orthogonalPerimeter;outlineConnect=0;targetShapes=umlLifeline;portConstraint=eastwest;newEdgeStyle={&quot;curved&quot;:0,&quot;rounded&quot;:0};" parent="1" vertex="1">
          <mxGeometry x="449" y="520" width="10" height="30" as="geometry" />
        </mxCell>
        <mxCell id="RaCZPGHy8SC5pGCzJy_n-40" value="Сохраняем название" style="html=1;verticalAlign=bottom;endArrow=block;curved=0;rounded=0;" parent="1" edge="1">
          <mxGeometry width="80" relative="1" as="geometry">
            <mxPoint x="459" y="540" as="sourcePoint" />
            <mxPoint x="603" y="540" as="targetPoint" />
          </mxGeometry>
        </mxCell>
        <mxCell id="RaCZPGHy8SC5pGCzJy_n-42" value="" style="endArrow=none;dashed=1;html=1;dashPattern=1 3;strokeWidth=2;rounded=0;" parent="1" target="RaCZPGHy8SC5pGCzJy_n-41" edge="1">
          <mxGeometry width="50" height="50" relative="1" as="geometry">
            <mxPoint x="605" y="670" as="sourcePoint" />
            <mxPoint x="605" y="290" as="targetPoint" />
          </mxGeometry>
        </mxCell>
        <mxCell id="RaCZPGHy8SC5pGCzJy_n-41" value="" style="html=1;points=[[0,0,0,0,5],[0,1,0,0,-5],[1,0,0,0,5],[1,1,0,0,-5]];perimeter=orthogonalPerimeter;outlineConnect=0;targetShapes=umlLifeline;portConstraint=eastwest;newEdgeStyle={&quot;curved&quot;:0,&quot;rounded&quot;:0};" parent="1" vertex="1">
          <mxGeometry x="600" y="530" width="10" height="60" as="geometry" />
        </mxCell>
        <mxCell id="RaCZPGHy8SC5pGCzJy_n-43" value="Сообщение о успешном создании и возв в меню задачи" style="html=1;verticalAlign=bottom;endArrow=open;dashed=1;endSize=8;curved=0;rounded=0;" parent="1" source="RaCZPGHy8SC5pGCzJy_n-41" edge="1">
          <mxGeometry relative="1" as="geometry">
            <mxPoint x="440" y="580" as="sourcePoint" />
            <mxPoint x="310" y="590" as="targetPoint" />
          </mxGeometry>
        </mxCell>
        <mxCell id="gW2aD3c4XWQigUf0Ixvf-1" value="" style="endArrow=none;dashed=1;html=1;dashPattern=1 3;strokeWidth=2;rounded=0;" parent="1" target="RaCZPGHy8SC5pGCzJy_n-44" edge="1">
          <mxGeometry width="50" height="50" relative="1" as="geometry">
            <mxPoint x="300" y="680" as="sourcePoint" />
            <mxPoint x="300" y="560" as="targetPoint" />
          </mxGeometry>
        </mxCell>
        <mxCell id="RaCZPGHy8SC5pGCzJy_n-44" value="" style="html=1;points=[[0,0,0,0,5],[0,1,0,0,-5],[1,0,0,0,5],[1,1,0,0,-5]];perimeter=orthogonalPerimeter;outlineConnect=0;targetShapes=umlLifeline;portConstraint=eastwest;newEdgeStyle={&quot;curved&quot;:0,&quot;rounded&quot;:0};" parent="1" vertex="1">
          <mxGeometry x="295" y="570" width="10" height="30" as="geometry" />
        </mxCell>
        <mxCell id="6Yhw52OUtXud06Qdqfmv-1" value="sd (Создать задачу)" style="shape=umlFrame;whiteSpace=wrap;html=1;pointerEvents=0;width=70;height=30;" parent="1" vertex="1">
          <mxGeometry x="60" y="50" width="620" height="600" as="geometry" />
        </mxCell>
      </root>
    </mxGraphModel>
  </diagram>
  <diagram id="4mV1-XFvp3vR1kmwBBuz" name="удалить задачу">
    <mxGraphModel dx="1026" dy="743" grid="1" gridSize="10" guides="1" tooltips="1" connect="1" arrows="1" fold="1" page="1" pageScale="1" pageWidth="827" pageHeight="1169" math="0" shadow="0">
      <root>
        <mxCell id="0" />
        <mxCell id="1" parent="0" />
        <mxCell id="dIc0G_WTJsqdfAnCPwNc-1" value="" style="shape=umlActor;verticalLabelPosition=bottom;verticalAlign=top;html=1;" parent="1" vertex="1">
          <mxGeometry x="120" y="65" width="30" height="60" as="geometry" />
        </mxCell>
        <mxCell id="dIc0G_WTJsqdfAnCPwNc-2" value="" style="shape=umlBoundary;whiteSpace=wrap;html=1;" parent="1" vertex="1">
          <mxGeometry x="260" y="60" width="80" height="70" as="geometry" />
        </mxCell>
        <mxCell id="dIc0G_WTJsqdfAnCPwNc-3" value="" style="ellipse;shape=umlControl;whiteSpace=wrap;html=1;" parent="1" vertex="1">
          <mxGeometry x="419" y="50" width="70" height="80" as="geometry" />
        </mxCell>
        <mxCell id="dIc0G_WTJsqdfAnCPwNc-4" value="" style="ellipse;shape=umlEntity;whiteSpace=wrap;html=1;" parent="1" vertex="1">
          <mxGeometry x="570" y="60" width="70" height="70" as="geometry" />
        </mxCell>
        <mxCell id="dIc0G_WTJsqdfAnCPwNc-5" value=": Клиент" style="rounded=1;whiteSpace=wrap;html=1;" parent="1" vertex="1">
          <mxGeometry x="90" y="140" width="90" height="40" as="geometry" />
        </mxCell>
        <mxCell id="dIc0G_WTJsqdfAnCPwNc-6" value=": Интерфейс клиента" style="rounded=1;whiteSpace=wrap;html=1;" parent="1" vertex="1">
          <mxGeometry x="260" y="140" width="90" height="40" as="geometry" />
        </mxCell>
        <mxCell id="dIc0G_WTJsqdfAnCPwNc-7" value=": Система" style="rounded=1;whiteSpace=wrap;html=1;" parent="1" vertex="1">
          <mxGeometry x="409" y="140" width="90" height="40" as="geometry" />
        </mxCell>
        <mxCell id="dIc0G_WTJsqdfAnCPwNc-8" value=": Данные" style="rounded=1;whiteSpace=wrap;html=1;" parent="1" vertex="1">
          <mxGeometry x="560" y="140" width="90" height="40" as="geometry" />
        </mxCell>
        <mxCell id="dIc0G_WTJsqdfAnCPwNc-9" value="" style="endArrow=none;dashed=1;html=1;dashPattern=1 3;strokeWidth=2;rounded=0;entryX=0.5;entryY=1;entryDx=0;entryDy=0;" parent="1" source="4r-n8uLQ_TVly1f9wPxx-1" target="dIc0G_WTJsqdfAnCPwNc-5" edge="1">
          <mxGeometry width="50" height="50" relative="1" as="geometry">
            <mxPoint x="135" y="680" as="sourcePoint" />
            <mxPoint x="140" y="200" as="targetPoint" />
          </mxGeometry>
        </mxCell>
        <mxCell id="sW2Yjv7fpBpZyqGlvc93-1" value="" style="endArrow=none;dashed=1;html=1;dashPattern=1 3;strokeWidth=2;rounded=0;entryX=0.5;entryY=1;entryDx=0;entryDy=0;" parent="1" source="4r-n8uLQ_TVly1f9wPxx-4" edge="1">
          <mxGeometry width="50" height="50" relative="1" as="geometry">
            <mxPoint x="303" y="680" as="sourcePoint" />
            <mxPoint x="302.5" y="180" as="targetPoint" />
          </mxGeometry>
        </mxCell>
        <mxCell id="sW2Yjv7fpBpZyqGlvc93-2" value="" style="endArrow=none;dashed=1;html=1;dashPattern=1 3;strokeWidth=2;rounded=0;entryX=0.5;entryY=1;entryDx=0;entryDy=0;" parent="1" source="C9vtP8-JQnSOkFi0oqOW-2" edge="1">
          <mxGeometry width="50" height="50" relative="1" as="geometry">
            <mxPoint x="457" y="680" as="sourcePoint" />
            <mxPoint x="456.5" y="180" as="targetPoint" />
          </mxGeometry>
        </mxCell>
        <mxCell id="sW2Yjv7fpBpZyqGlvc93-3" value="" style="endArrow=none;dashed=1;html=1;dashPattern=1 3;strokeWidth=2;rounded=0;entryX=0.5;entryY=1;entryDx=0;entryDy=0;" parent="1" source="C9vtP8-JQnSOkFi0oqOW-5" target="dIc0G_WTJsqdfAnCPwNc-8" edge="1">
          <mxGeometry width="50" height="50" relative="1" as="geometry">
            <mxPoint x="605" y="680" as="sourcePoint" />
            <mxPoint x="607.5" y="180" as="targetPoint" />
          </mxGeometry>
        </mxCell>
        <mxCell id="4r-n8uLQ_TVly1f9wPxx-2" value="" style="endArrow=none;dashed=1;html=1;dashPattern=1 3;strokeWidth=2;rounded=0;entryX=0.5;entryY=1;entryDx=0;entryDy=0;" parent="1" source="C9vtP8-JQnSOkFi0oqOW-9" target="4r-n8uLQ_TVly1f9wPxx-1" edge="1">
          <mxGeometry width="50" height="50" relative="1" as="geometry">
            <mxPoint x="135" y="700" as="sourcePoint" />
            <mxPoint x="135" y="200" as="targetPoint" />
          </mxGeometry>
        </mxCell>
        <mxCell id="4r-n8uLQ_TVly1f9wPxx-1" value="" style="html=1;points=[[0,0,0,0,5],[0,1,0,0,-5],[1,0,0,0,5],[1,1,0,0,-5]];perimeter=orthogonalPerimeter;outlineConnect=0;targetShapes=umlLifeline;portConstraint=eastwest;newEdgeStyle={&quot;curved&quot;:0,&quot;rounded&quot;:0};" parent="1" vertex="1">
          <mxGeometry x="130" y="220" width="10" height="30" as="geometry" />
        </mxCell>
        <mxCell id="4r-n8uLQ_TVly1f9wPxx-3" value="Удалить задачу" style="html=1;verticalAlign=bottom;endArrow=block;curved=0;rounded=0;" parent="1" target="4r-n8uLQ_TVly1f9wPxx-4" edge="1">
          <mxGeometry width="80" relative="1" as="geometry">
            <mxPoint x="140" y="230" as="sourcePoint" />
            <mxPoint x="260" y="230" as="targetPoint" />
          </mxGeometry>
        </mxCell>
        <mxCell id="4r-n8uLQ_TVly1f9wPxx-5" value="" style="endArrow=none;dashed=1;html=1;dashPattern=1 3;strokeWidth=2;rounded=0;entryX=0.5;entryY=1;entryDx=0;entryDy=0;" parent="1" source="C9vtP8-JQnSOkFi0oqOW-18" target="4r-n8uLQ_TVly1f9wPxx-4" edge="1">
          <mxGeometry width="50" height="50" relative="1" as="geometry">
            <mxPoint x="303" y="700" as="sourcePoint" />
            <mxPoint x="302.5" y="200" as="targetPoint" />
          </mxGeometry>
        </mxCell>
        <mxCell id="4r-n8uLQ_TVly1f9wPxx-4" value="" style="html=1;points=[[0,0,0,0,5],[0,1,0,0,-5],[1,0,0,0,5],[1,1,0,0,-5]];perimeter=orthogonalPerimeter;outlineConnect=0;targetShapes=umlLifeline;portConstraint=eastwest;newEdgeStyle={&quot;curved&quot;:0,&quot;rounded&quot;:0};" parent="1" vertex="1">
          <mxGeometry x="298" y="220" width="10" height="30" as="geometry" />
        </mxCell>
        <mxCell id="C9vtP8-JQnSOkFi0oqOW-1" value="" style="endArrow=none;dashed=1;html=1;dashPattern=1 3;strokeWidth=2;rounded=0;entryX=0.5;entryY=1;entryDx=0;entryDy=0;" parent="1" target="C9vtP8-JQnSOkFi0oqOW-2" edge="1">
          <mxGeometry width="50" height="50" relative="1" as="geometry">
            <mxPoint x="454" y="350" as="sourcePoint" />
            <mxPoint x="456.5" y="200" as="targetPoint" />
          </mxGeometry>
        </mxCell>
        <mxCell id="C9vtP8-JQnSOkFi0oqOW-2" value="" style="html=1;points=[[0,0,0,0,5],[0,1,0,0,-5],[1,0,0,0,5],[1,1,0,0,-5]];perimeter=orthogonalPerimeter;outlineConnect=0;targetShapes=umlLifeline;portConstraint=eastwest;newEdgeStyle={&quot;curved&quot;:0,&quot;rounded&quot;:0};" parent="1" vertex="1">
          <mxGeometry x="449" y="220" width="10" height="70" as="geometry" />
        </mxCell>
        <mxCell id="C9vtP8-JQnSOkFi0oqOW-3" value="Удалить задачу" style="html=1;verticalAlign=bottom;endArrow=block;curved=0;rounded=0;" parent="1" target="C9vtP8-JQnSOkFi0oqOW-2" edge="1">
          <mxGeometry width="80" relative="1" as="geometry">
            <mxPoint x="309" y="230" as="sourcePoint" />
            <mxPoint x="389" y="230" as="targetPoint" />
          </mxGeometry>
        </mxCell>
        <mxCell id="C9vtP8-JQnSOkFi0oqOW-4" value="Запрос задач" style="html=1;verticalAlign=bottom;endArrow=block;curved=0;rounded=0;exitX=1;exitY=0;exitDx=0;exitDy=5;exitPerimeter=0;entryX=0;entryY=0;entryDx=0;entryDy=5;entryPerimeter=0;" parent="1" source="C9vtP8-JQnSOkFi0oqOW-2" target="C9vtP8-JQnSOkFi0oqOW-5" edge="1">
          <mxGeometry width="80" relative="1" as="geometry">
            <mxPoint x="480" y="250" as="sourcePoint" />
            <mxPoint x="590" y="225" as="targetPoint" />
          </mxGeometry>
        </mxCell>
        <mxCell id="C9vtP8-JQnSOkFi0oqOW-6" value="" style="endArrow=none;dashed=1;html=1;dashPattern=1 3;strokeWidth=2;rounded=0;entryX=0.5;entryY=1;entryDx=0;entryDy=0;" parent="1" source="C9vtP8-JQnSOkFi0oqOW-15" target="C9vtP8-JQnSOkFi0oqOW-5" edge="1">
          <mxGeometry width="50" height="50" relative="1" as="geometry">
            <mxPoint x="605" y="700" as="sourcePoint" />
            <mxPoint x="605" y="200" as="targetPoint" />
          </mxGeometry>
        </mxCell>
        <mxCell id="C9vtP8-JQnSOkFi0oqOW-5" value="" style="html=1;points=[[0,0,0,0,5],[0,1,0,0,-5],[1,0,0,0,5],[1,1,0,0,-5]];perimeter=orthogonalPerimeter;outlineConnect=0;targetShapes=umlLifeline;portConstraint=eastwest;newEdgeStyle={&quot;curved&quot;:0,&quot;rounded&quot;:0};" parent="1" vertex="1">
          <mxGeometry x="600" y="220" width="10" height="60" as="geometry" />
        </mxCell>
        <mxCell id="C9vtP8-JQnSOkFi0oqOW-7" value="Задачи" style="html=1;verticalAlign=bottom;endArrow=open;dashed=1;endSize=8;curved=0;rounded=0;" parent="1" edge="1">
          <mxGeometry relative="1" as="geometry">
            <mxPoint x="600" y="270" as="sourcePoint" />
            <mxPoint x="460" y="270" as="targetPoint" />
          </mxGeometry>
        </mxCell>
        <mxCell id="C9vtP8-JQnSOkFi0oqOW-10" value="" style="endArrow=none;dashed=1;html=1;dashPattern=1 3;strokeWidth=2;rounded=0;entryX=0.5;entryY=1;entryDx=0;entryDy=0;" parent="1" target="C9vtP8-JQnSOkFi0oqOW-9" edge="1">
          <mxGeometry width="50" height="50" relative="1" as="geometry">
            <mxPoint x="135" y="630" as="sourcePoint" />
            <mxPoint x="135" y="180" as="targetPoint" />
          </mxGeometry>
        </mxCell>
        <mxCell id="C9vtP8-JQnSOkFi0oqOW-9" value="" style="html=1;points=[[0,0,0,0,5],[0,1,0,0,-5],[1,0,0,0,5],[1,1,0,0,-5]];perimeter=orthogonalPerimeter;outlineConnect=0;targetShapes=umlLifeline;portConstraint=eastwest;newEdgeStyle={&quot;curved&quot;:0,&quot;rounded&quot;:0};" parent="1" vertex="1">
          <mxGeometry x="130" y="300" width="10" height="100" as="geometry" />
        </mxCell>
        <mxCell id="C9vtP8-JQnSOkFi0oqOW-11" value="Задачи" style="html=1;verticalAlign=bottom;endArrow=open;dashed=1;endSize=8;curved=0;rounded=0;" parent="1" edge="1">
          <mxGeometry relative="1" as="geometry">
            <mxPoint x="298" y="314.5" as="sourcePoint" />
            <mxPoint x="140" y="314.5" as="targetPoint" />
          </mxGeometry>
        </mxCell>
        <mxCell id="C9vtP8-JQnSOkFi0oqOW-12" value="" style="endArrow=none;dashed=1;html=1;dashPattern=1 3;strokeWidth=2;rounded=0;entryX=0.5;entryY=1;entryDx=0;entryDy=0;" parent="1" edge="1">
          <mxGeometry width="50" height="50" relative="1" as="geometry">
            <mxPoint x="454" y="630" as="sourcePoint" />
            <mxPoint x="454" y="340" as="targetPoint" />
          </mxGeometry>
        </mxCell>
        <mxCell id="C9vtP8-JQnSOkFi0oqOW-14" value="Выбор задачи" style="html=1;verticalAlign=bottom;endArrow=block;curved=0;rounded=0;" parent="1" edge="1">
          <mxGeometry x="0.0032" width="80" relative="1" as="geometry">
            <mxPoint x="140" y="374.5" as="sourcePoint" />
            <mxPoint x="298" y="374.5" as="targetPoint" />
            <mxPoint as="offset" />
          </mxGeometry>
        </mxCell>
        <mxCell id="C9vtP8-JQnSOkFi0oqOW-16" value="" style="html=1;points=[[0,0,0,0,5],[0,1,0,0,-5],[1,0,0,0,5],[1,1,0,0,-5]];perimeter=orthogonalPerimeter;outlineConnect=0;targetShapes=umlLifeline;portConstraint=eastwest;newEdgeStyle={&quot;curved&quot;:0,&quot;rounded&quot;:0};" parent="1" vertex="1">
          <mxGeometry x="449" y="300" width="10" height="30" as="geometry" />
        </mxCell>
        <mxCell id="C9vtP8-JQnSOkFi0oqOW-17" value="Генерация кнопок" style="html=1;align=left;spacingLeft=2;endArrow=block;rounded=0;edgeStyle=orthogonalEdgeStyle;curved=0;rounded=0;" parent="1" target="C9vtP8-JQnSOkFi0oqOW-16" edge="1">
          <mxGeometry relative="1" as="geometry">
            <mxPoint x="460" y="280" as="sourcePoint" />
            <Array as="points">
              <mxPoint x="484" y="310" />
            </Array>
          </mxGeometry>
        </mxCell>
        <mxCell id="C9vtP8-JQnSOkFi0oqOW-19" value="" style="endArrow=none;dashed=1;html=1;dashPattern=1 3;strokeWidth=2;rounded=0;entryX=0.5;entryY=1;entryDx=0;entryDy=0;" parent="1" source="5Tl2fQaaBr6odXV46Mpv-2" target="C9vtP8-JQnSOkFi0oqOW-18" edge="1">
          <mxGeometry width="50" height="50" relative="1" as="geometry">
            <mxPoint x="303" y="680" as="sourcePoint" />
            <mxPoint x="303" y="230" as="targetPoint" />
          </mxGeometry>
        </mxCell>
        <mxCell id="C9vtP8-JQnSOkFi0oqOW-18" value="" style="html=1;points=[[0,0,0,0,5],[0,1,0,0,-5],[1,0,0,0,5],[1,1,0,0,-5]];perimeter=orthogonalPerimeter;outlineConnect=0;targetShapes=umlLifeline;portConstraint=eastwest;newEdgeStyle={&quot;curved&quot;:0,&quot;rounded&quot;:0};" parent="1" vertex="1">
          <mxGeometry x="298" y="300" width="10" height="30" as="geometry" />
        </mxCell>
        <mxCell id="C9vtP8-JQnSOkFi0oqOW-20" value="Кнопки задач" style="html=1;verticalAlign=bottom;endArrow=open;dashed=1;endSize=8;curved=0;rounded=0;" parent="1" edge="1">
          <mxGeometry relative="1" as="geometry">
            <mxPoint x="448" y="319.5" as="sourcePoint" />
            <mxPoint x="308" y="319.5" as="targetPoint" />
            <mxPoint as="offset" />
          </mxGeometry>
        </mxCell>
        <mxCell id="C9vtP8-JQnSOkFi0oqOW-23" value="Обновление данных" style="html=1;verticalAlign=bottom;endArrow=block;curved=0;rounded=0;" parent="1" edge="1">
          <mxGeometry width="80" relative="1" as="geometry">
            <mxPoint x="459" y="370" as="sourcePoint" />
            <mxPoint x="600" y="370" as="targetPoint" />
          </mxGeometry>
        </mxCell>
        <mxCell id="C9vtP8-JQnSOkFi0oqOW-24" value="" style="endArrow=none;dashed=1;html=1;dashPattern=1 3;strokeWidth=2;rounded=0;entryX=0.5;entryY=1;entryDx=0;entryDy=0;" parent="1" target="C9vtP8-JQnSOkFi0oqOW-15" edge="1">
          <mxGeometry width="50" height="50" relative="1" as="geometry">
            <mxPoint x="605" y="630" as="sourcePoint" />
            <mxPoint x="605" y="210" as="targetPoint" />
          </mxGeometry>
        </mxCell>
        <mxCell id="C9vtP8-JQnSOkFi0oqOW-15" value="" style="html=1;points=[[0,0,0,0,5],[0,1,0,0,-5],[1,0,0,0,5],[1,1,0,0,-5]];perimeter=orthogonalPerimeter;outlineConnect=0;targetShapes=umlLifeline;portConstraint=eastwest;newEdgeStyle={&quot;curved&quot;:0,&quot;rounded&quot;:0};" parent="1" vertex="1">
          <mxGeometry x="600" y="360" width="10" height="70" as="geometry" />
        </mxCell>
        <mxCell id="URTK1IhEeInFkq7juUPh-1" value="" style="html=1;verticalAlign=bottom;endArrow=block;curved=0;rounded=0;" parent="1" target="C9vtP8-JQnSOkFi0oqOW-13" edge="1">
          <mxGeometry width="80" relative="1" as="geometry">
            <mxPoint x="459" y="370" as="sourcePoint" />
            <mxPoint x="600" y="370" as="targetPoint" />
          </mxGeometry>
        </mxCell>
        <mxCell id="C9vtP8-JQnSOkFi0oqOW-13" value="" style="html=1;points=[[0,0,0,0,5],[0,1,0,0,-5],[1,0,0,0,5],[1,1,0,0,-5]];perimeter=orthogonalPerimeter;outlineConnect=0;targetShapes=umlLifeline;portConstraint=eastwest;newEdgeStyle={&quot;curved&quot;:0,&quot;rounded&quot;:0};" parent="1" vertex="1">
          <mxGeometry x="449" y="360" width="10" height="30" as="geometry" />
        </mxCell>
        <mxCell id="5Tl2fQaaBr6odXV46Mpv-1" value="Сообщение о успешном удалении и возв в меню задачи" style="html=1;verticalAlign=bottom;endArrow=open;dashed=1;endSize=8;curved=0;rounded=0;" parent="1" edge="1">
          <mxGeometry relative="1" as="geometry">
            <mxPoint x="598" y="420" as="sourcePoint" />
            <mxPoint x="308" y="420" as="targetPoint" />
          </mxGeometry>
        </mxCell>
        <mxCell id="5Tl2fQaaBr6odXV46Mpv-3" value="" style="endArrow=none;dashed=1;html=1;dashPattern=1 3;strokeWidth=2;rounded=0;entryX=0.5;entryY=1;entryDx=0;entryDy=0;" parent="1" target="5Tl2fQaaBr6odXV46Mpv-2" edge="1">
          <mxGeometry width="50" height="50" relative="1" as="geometry">
            <mxPoint x="303" y="630" as="sourcePoint" />
            <mxPoint x="303" y="280" as="targetPoint" />
          </mxGeometry>
        </mxCell>
        <mxCell id="5Tl2fQaaBr6odXV46Mpv-2" value="" style="html=1;points=[[0,0,0,0,5],[0,1,0,0,-5],[1,0,0,0,5],[1,1,0,0,-5]];perimeter=orthogonalPerimeter;outlineConnect=0;targetShapes=umlLifeline;portConstraint=eastwest;newEdgeStyle={&quot;curved&quot;:0,&quot;rounded&quot;:0};" parent="1" vertex="1">
          <mxGeometry x="298" y="400" width="10" height="30" as="geometry" />
        </mxCell>
        <mxCell id="TFOoiopBigMZ0cmb7lUm-1" value="sd (Удалить задачу)" style="shape=umlFrame;whiteSpace=wrap;html=1;pointerEvents=0;width=70;height=30;" parent="1" vertex="1">
          <mxGeometry x="60" y="40" width="610" height="400" as="geometry" />
        </mxCell>
        <mxCell id="E3ckOzW6x2tiRrIGeBjX-1" value="" style="html=1;points=[[0,0,0,0,5],[0,1,0,0,-5],[1,0,0,0,5],[1,1,0,0,-5]];perimeter=orthogonalPerimeter;outlineConnect=0;targetShapes=umlLifeline;portConstraint=eastwest;newEdgeStyle={&quot;curved&quot;:0,&quot;rounded&quot;:0};" vertex="1" parent="1">
          <mxGeometry x="298" y="360" width="10" height="30" as="geometry" />
        </mxCell>
        <mxCell id="E3ckOzW6x2tiRrIGeBjX-2" value="Выбранная задача" style="html=1;verticalAlign=bottom;endArrow=block;curved=0;rounded=0;" edge="1" parent="1">
          <mxGeometry x="0.0032" width="80" relative="1" as="geometry">
            <mxPoint x="308" y="375" as="sourcePoint" />
            <mxPoint x="450" y="375" as="targetPoint" />
            <mxPoint as="offset" />
          </mxGeometry>
        </mxCell>
      </root>
    </mxGraphModel>
  </diagram>
  <diagram id="nHHZIyBuOhsnOA4NJ16i" name="инф о задачах ">
    <mxGraphModel dx="1026" dy="743" grid="1" gridSize="10" guides="1" tooltips="1" connect="1" arrows="1" fold="1" page="1" pageScale="1" pageWidth="827" pageHeight="1169" math="0" shadow="0">
      <root>
        <mxCell id="0" />
        <mxCell id="1" parent="0" />
        <mxCell id="jxs7MNjnPVgGkZ9lYzeX-1" value="" style="shape=umlActor;verticalLabelPosition=bottom;verticalAlign=top;html=1;" vertex="1" parent="1">
          <mxGeometry x="120" y="65" width="30" height="60" as="geometry" />
        </mxCell>
        <mxCell id="jxs7MNjnPVgGkZ9lYzeX-2" value="" style="shape=umlBoundary;whiteSpace=wrap;html=1;" vertex="1" parent="1">
          <mxGeometry x="260" y="60" width="80" height="70" as="geometry" />
        </mxCell>
        <mxCell id="jxs7MNjnPVgGkZ9lYzeX-3" value="" style="ellipse;shape=umlControl;whiteSpace=wrap;html=1;" vertex="1" parent="1">
          <mxGeometry x="419" y="50" width="70" height="80" as="geometry" />
        </mxCell>
        <mxCell id="jxs7MNjnPVgGkZ9lYzeX-4" value="" style="ellipse;shape=umlEntity;whiteSpace=wrap;html=1;" vertex="1" parent="1">
          <mxGeometry x="570" y="60" width="70" height="70" as="geometry" />
        </mxCell>
        <mxCell id="jxs7MNjnPVgGkZ9lYzeX-5" value=": Клиент" style="rounded=1;whiteSpace=wrap;html=1;" vertex="1" parent="1">
          <mxGeometry x="90" y="140" width="90" height="40" as="geometry" />
        </mxCell>
        <mxCell id="jxs7MNjnPVgGkZ9lYzeX-6" value=": Интерфейс клиента" style="rounded=1;whiteSpace=wrap;html=1;" vertex="1" parent="1">
          <mxGeometry x="260" y="140" width="90" height="40" as="geometry" />
        </mxCell>
        <mxCell id="jxs7MNjnPVgGkZ9lYzeX-7" value=": Система" style="rounded=1;whiteSpace=wrap;html=1;" vertex="1" parent="1">
          <mxGeometry x="409" y="140" width="90" height="40" as="geometry" />
        </mxCell>
        <mxCell id="jxs7MNjnPVgGkZ9lYzeX-8" value=": Данные" style="rounded=1;whiteSpace=wrap;html=1;" vertex="1" parent="1">
          <mxGeometry x="560" y="140" width="90" height="40" as="geometry" />
        </mxCell>
        <mxCell id="jxs7MNjnPVgGkZ9lYzeX-9" value="" style="endArrow=none;dashed=1;html=1;dashPattern=1 3;strokeWidth=2;rounded=0;entryX=0.5;entryY=1;entryDx=0;entryDy=0;" edge="1" parent="1" source="jxs7MNjnPVgGkZ9lYzeX-14" target="jxs7MNjnPVgGkZ9lYzeX-5">
          <mxGeometry width="50" height="50" relative="1" as="geometry">
            <mxPoint x="135" y="680" as="sourcePoint" />
            <mxPoint x="140" y="200" as="targetPoint" />
          </mxGeometry>
        </mxCell>
        <mxCell id="jxs7MNjnPVgGkZ9lYzeX-10" value="" style="endArrow=none;dashed=1;html=1;dashPattern=1 3;strokeWidth=2;rounded=0;entryX=0.5;entryY=1;entryDx=0;entryDy=0;" edge="1" parent="1" source="jxs7MNjnPVgGkZ9lYzeX-17">
          <mxGeometry width="50" height="50" relative="1" as="geometry">
            <mxPoint x="303" y="680" as="sourcePoint" />
            <mxPoint x="302.5" y="180" as="targetPoint" />
          </mxGeometry>
        </mxCell>
        <mxCell id="jxs7MNjnPVgGkZ9lYzeX-11" value="" style="endArrow=none;dashed=1;html=1;dashPattern=1 3;strokeWidth=2;rounded=0;entryX=0.5;entryY=1;entryDx=0;entryDy=0;" edge="1" parent="1" source="jxs7MNjnPVgGkZ9lYzeX-19">
          <mxGeometry width="50" height="50" relative="1" as="geometry">
            <mxPoint x="457" y="680" as="sourcePoint" />
            <mxPoint x="456.5" y="180" as="targetPoint" />
          </mxGeometry>
        </mxCell>
        <mxCell id="jxs7MNjnPVgGkZ9lYzeX-12" value="" style="endArrow=none;dashed=1;html=1;dashPattern=1 3;strokeWidth=2;rounded=0;entryX=0.5;entryY=1;entryDx=0;entryDy=0;" edge="1" parent="1" source="jxs7MNjnPVgGkZ9lYzeX-23" target="jxs7MNjnPVgGkZ9lYzeX-8">
          <mxGeometry width="50" height="50" relative="1" as="geometry">
            <mxPoint x="605" y="680" as="sourcePoint" />
            <mxPoint x="607.5" y="180" as="targetPoint" />
          </mxGeometry>
        </mxCell>
        <mxCell id="jxs7MNjnPVgGkZ9lYzeX-13" value="" style="endArrow=none;dashed=1;html=1;dashPattern=1 3;strokeWidth=2;rounded=0;entryX=0.5;entryY=1;entryDx=0;entryDy=0;" edge="1" parent="1" target="jxs7MNjnPVgGkZ9lYzeX-14">
          <mxGeometry width="50" height="50" relative="1" as="geometry">
            <mxPoint x="135" y="300" as="sourcePoint" />
            <mxPoint x="135" y="200" as="targetPoint" />
          </mxGeometry>
        </mxCell>
        <mxCell id="jxs7MNjnPVgGkZ9lYzeX-14" value="" style="html=1;points=[[0,0,0,0,5],[0,1,0,0,-5],[1,0,0,0,5],[1,1,0,0,-5]];perimeter=orthogonalPerimeter;outlineConnect=0;targetShapes=umlLifeline;portConstraint=eastwest;newEdgeStyle={&quot;curved&quot;:0,&quot;rounded&quot;:0};" vertex="1" parent="1">
          <mxGeometry x="130" y="220" width="10" height="110" as="geometry" />
        </mxCell>
        <mxCell id="jxs7MNjnPVgGkZ9lYzeX-15" value="Информация о задачах" style="html=1;verticalAlign=bottom;endArrow=block;curved=0;rounded=0;" edge="1" parent="1" target="jxs7MNjnPVgGkZ9lYzeX-17">
          <mxGeometry width="80" relative="1" as="geometry">
            <mxPoint x="140" y="230" as="sourcePoint" />
            <mxPoint x="260" y="230" as="targetPoint" />
          </mxGeometry>
        </mxCell>
        <mxCell id="jxs7MNjnPVgGkZ9lYzeX-16" value="" style="endArrow=none;dashed=1;html=1;dashPattern=1 3;strokeWidth=2;rounded=0;entryX=0.5;entryY=1;entryDx=0;entryDy=0;" edge="1" parent="1" target="jxs7MNjnPVgGkZ9lYzeX-17">
          <mxGeometry width="50" height="50" relative="1" as="geometry">
            <mxPoint x="303" y="400" as="sourcePoint" />
            <mxPoint x="302.5" y="200" as="targetPoint" />
          </mxGeometry>
        </mxCell>
        <mxCell id="jxs7MNjnPVgGkZ9lYzeX-17" value="" style="html=1;points=[[0,0,0,0,5],[0,1,0,0,-5],[1,0,0,0,5],[1,1,0,0,-5]];perimeter=orthogonalPerimeter;outlineConnect=0;targetShapes=umlLifeline;portConstraint=eastwest;newEdgeStyle={&quot;curved&quot;:0,&quot;rounded&quot;:0};" vertex="1" parent="1">
          <mxGeometry x="298" y="220" width="10" height="110" as="geometry" />
        </mxCell>
        <mxCell id="jxs7MNjnPVgGkZ9lYzeX-18" value="" style="endArrow=none;dashed=1;html=1;dashPattern=1 3;strokeWidth=2;rounded=0;entryX=0.5;entryY=1;entryDx=0;entryDy=0;" edge="1" parent="1" target="jxs7MNjnPVgGkZ9lYzeX-19">
          <mxGeometry width="50" height="50" relative="1" as="geometry">
            <mxPoint x="454" y="350" as="sourcePoint" />
            <mxPoint x="456.5" y="200" as="targetPoint" />
          </mxGeometry>
        </mxCell>
        <mxCell id="jxs7MNjnPVgGkZ9lYzeX-19" value="" style="html=1;points=[[0,0,0,0,5],[0,1,0,0,-5],[1,0,0,0,5],[1,1,0,0,-5]];perimeter=orthogonalPerimeter;outlineConnect=0;targetShapes=umlLifeline;portConstraint=eastwest;newEdgeStyle={&quot;curved&quot;:0,&quot;rounded&quot;:0};" vertex="1" parent="1">
          <mxGeometry x="449" y="220" width="10" height="70" as="geometry" />
        </mxCell>
        <mxCell id="jxs7MNjnPVgGkZ9lYzeX-20" value="Информация о задачах" style="html=1;verticalAlign=bottom;endArrow=block;curved=0;rounded=0;" edge="1" parent="1" target="jxs7MNjnPVgGkZ9lYzeX-19">
          <mxGeometry width="80" relative="1" as="geometry">
            <mxPoint x="309" y="230" as="sourcePoint" />
            <mxPoint x="389" y="230" as="targetPoint" />
          </mxGeometry>
        </mxCell>
        <mxCell id="jxs7MNjnPVgGkZ9lYzeX-21" value="Запрос задач" style="html=1;verticalAlign=bottom;endArrow=block;curved=0;rounded=0;exitX=1;exitY=0;exitDx=0;exitDy=5;exitPerimeter=0;entryX=0;entryY=0;entryDx=0;entryDy=5;entryPerimeter=0;" edge="1" parent="1" source="jxs7MNjnPVgGkZ9lYzeX-19" target="jxs7MNjnPVgGkZ9lYzeX-23">
          <mxGeometry width="80" relative="1" as="geometry">
            <mxPoint x="480" y="250" as="sourcePoint" />
            <mxPoint x="590" y="225" as="targetPoint" />
          </mxGeometry>
        </mxCell>
        <mxCell id="jxs7MNjnPVgGkZ9lYzeX-22" value="" style="endArrow=none;dashed=1;html=1;dashPattern=1 3;strokeWidth=2;rounded=0;entryX=0.5;entryY=1;entryDx=0;entryDy=0;" edge="1" parent="1" target="jxs7MNjnPVgGkZ9lYzeX-23">
          <mxGeometry width="50" height="50" relative="1" as="geometry">
            <mxPoint x="605" y="360" as="sourcePoint" />
            <mxPoint x="605" y="200" as="targetPoint" />
          </mxGeometry>
        </mxCell>
        <mxCell id="jxs7MNjnPVgGkZ9lYzeX-23" value="" style="html=1;points=[[0,0,0,0,5],[0,1,0,0,-5],[1,0,0,0,5],[1,1,0,0,-5]];perimeter=orthogonalPerimeter;outlineConnect=0;targetShapes=umlLifeline;portConstraint=eastwest;newEdgeStyle={&quot;curved&quot;:0,&quot;rounded&quot;:0};" vertex="1" parent="1">
          <mxGeometry x="600" y="220" width="10" height="60" as="geometry" />
        </mxCell>
        <mxCell id="jxs7MNjnPVgGkZ9lYzeX-24" value="Задачи" style="html=1;verticalAlign=bottom;endArrow=open;dashed=1;endSize=8;curved=0;rounded=0;" edge="1" parent="1">
          <mxGeometry relative="1" as="geometry">
            <mxPoint x="600" y="270" as="sourcePoint" />
            <mxPoint x="460" y="270" as="targetPoint" />
          </mxGeometry>
        </mxCell>
        <mxCell id="jxs7MNjnPVgGkZ9lYzeX-25" value="Сообщение" style="html=1;verticalAlign=bottom;endArrow=open;dashed=1;endSize=8;curved=0;rounded=0;" edge="1" parent="1">
          <mxGeometry relative="1" as="geometry">
            <mxPoint x="298" y="314.5" as="sourcePoint" />
            <mxPoint x="140" y="314.5" as="targetPoint" />
          </mxGeometry>
        </mxCell>
        <mxCell id="jxs7MNjnPVgGkZ9lYzeX-27" value="" style="html=1;points=[[0,0,0,0,5],[0,1,0,0,-5],[1,0,0,0,5],[1,1,0,0,-5]];perimeter=orthogonalPerimeter;outlineConnect=0;targetShapes=umlLifeline;portConstraint=eastwest;newEdgeStyle={&quot;curved&quot;:0,&quot;rounded&quot;:0};" vertex="1" parent="1">
          <mxGeometry x="449" y="300" width="10" height="30" as="geometry" />
        </mxCell>
        <mxCell id="jxs7MNjnPVgGkZ9lYzeX-28" value="Генерация сообщения" style="html=1;align=left;spacingLeft=2;endArrow=block;rounded=0;edgeStyle=orthogonalEdgeStyle;curved=0;rounded=0;" edge="1" parent="1" target="jxs7MNjnPVgGkZ9lYzeX-27">
          <mxGeometry relative="1" as="geometry">
            <mxPoint x="460" y="280" as="sourcePoint" />
            <Array as="points">
              <mxPoint x="484" y="310" />
            </Array>
          </mxGeometry>
        </mxCell>
        <mxCell id="jxs7MNjnPVgGkZ9lYzeX-30" value="Сообщение" style="html=1;verticalAlign=bottom;endArrow=open;dashed=1;endSize=8;curved=0;rounded=0;" edge="1" parent="1">
          <mxGeometry relative="1" as="geometry">
            <mxPoint x="448" y="319.5" as="sourcePoint" />
            <mxPoint x="308" y="319.5" as="targetPoint" />
            <mxPoint as="offset" />
          </mxGeometry>
        </mxCell>
        <mxCell id="jxs7MNjnPVgGkZ9lYzeX-34" value="" style="endArrow=none;dashed=1;html=1;dashPattern=1 3;strokeWidth=2;rounded=0;entryX=0.5;entryY=1;entryDx=0;entryDy=0;" edge="1" parent="1">
          <mxGeometry width="50" height="50" relative="1" as="geometry">
            <mxPoint x="135" y="400" as="sourcePoint" />
            <mxPoint x="134.5" y="330" as="targetPoint" />
          </mxGeometry>
        </mxCell>
        <mxCell id="jxs7MNjnPVgGkZ9lYzeX-35" value="sd (Инф. о задачах)" style="shape=umlFrame;whiteSpace=wrap;html=1;pointerEvents=0;width=70;height=30;" vertex="1" parent="1">
          <mxGeometry x="50" y="30" width="650" height="430" as="geometry" />
        </mxCell>
      </root>
    </mxGraphModel>
  </diagram>
</mxfile>
